<?xml version="1.0" encoding="utf-8"?>
<!-- Generated by IcoMoon.io -->
<!DOCTYPE svg PUBLIC "-//W3C//DTD SVG 1.1//EN" "http://www.w3.org/Graphics/SVG/1.1/DTD/svg11.dtd">
<svg version="1.1" xmlns="http://www.w3.org/2000/svg" xmlns:xlink="http://www.w3.org/1999/xlink" width="752" height="80" viewBox="0 0 752 80">
<svg id="icon-caw" width="32" height="32" viewBox="0 0 32 32" x="0" y="0">
<path d="M26.41 15.668c0.161-0.247 0.255-0.542 0.255-0.859 0-0.234-0.051-0.457-0.139-0.647-0.549-1.29-2.427-1.851-3.208-2.033l-0.199-0.047c0.966-1.952 0.508-5.16 0.151-6.241l-2.065 0.176c-0.038 0.675-0.517 1.945-2.32 3.384l-1.089 0.792c-0.518-0.098-1.053-0.15-1.601-0.15-0.573 0.001-1.133 0.058-1.62 0.155l-1.071-0.736c-1.803-1.439-2.283-2.708-2.321-3.384l-2.065-0.169c-0.353 1.074-0.81 4.248 0.135 6.207l-0.068 0.014c-0.781 0.182-2.66 0.743-3.204 2.023-0.093 0.2-0.144 0.424-0.144 0.659 0 0.316 0.093 0.61 0.253 0.855 0.295 0.423 0.786 0.7 1.341 0.7 0.032 0 0.065-0.001 0.111-0.004 0.741-0.050 1.446-0.234 2.053-0.545-0.014 0.236-0.021 0.474-0.021 0.713 0 1.901 0.453 3.695 1.235 5.192-0.169 0.41-0.262 0.859-0.262 1.329 0 0.163 0.011 0.324 0.031 0.463 0.312 2.283 2.863 3.532 5.727 3.532s5.427-1.249 5.755-3.513c0.024-0.165 0.036-0.333 0.036-0.504 0-0.582-0.142-1.131-0.413-1.525 0.717-1.503 1.119-3.186 1.119-4.962 0-0.263-0.009-0.523-0.063-0.763 0.681 0.321 1.429 0.524 2.233 0.583 0.032 0.002 0.064 0.003 0.096 0.003 0.555 0 1.046-0.277 1.344-0.705zM9.482 13.447s-1.931 0.446-2.271 1.249 2.131-0.095 2.59-0.473c-0.169-0.215-0.283-0.48-0.319-0.769zM11.709 13.494c0.874-1.378 2.427-2.1 4.488-2.1 2.034 0 3.571 0.709 4.449 2.053 1.166 1.79 1.104 4.572-0.165 7.443l-0.255 0.581 0.275 0.556c0.159 0.299 0.248 0.641 0.248 1.003 0 0.103-0.007 0.204-0.020 0.292-0.233 1.634-2.462 2.377-4.42 2.377s-4.168-0.736-4.389-2.353c-0.013-0.095-0.019-0.192-0.019-0.291 0-0.293 0.058-0.573 0.159-0.814l0.215-0.54-0.248-0.527c-1.381-2.951-1.499-5.822-0.315-7.679zM25.281 14.697c0.338 0.797-2.131-0.095-2.591-0.469 0.171-0.218 0.286-0.483 0.323-0.78 0 0 1.932 0.446 2.27 1.249zM12.74 10.577s-2.428-1.675-2.523-3.39c-0.27 1.472-0.394 3.796 0.473 4.721 0.597-0.47 1.267-0.911 1.973-1.293zM19.65 10.509s2.428-1.668 2.523-3.384c0.27 1.466 0.394 3.789-0.476 4.714-0.596-0.462-1.266-0.903-1.969-1.29zM16.016-0.007c-8.839 0.001-16.005 7.167-16.005 16.007s7.166 16.007 16.007 16.007 16.007-7.166 16.007-16.007c0-8.84-7.166-16.007-16.007-16.007zM16.018 30.656c-8.094 0-14.656-6.562-14.656-14.656s6.562-14.656 14.656-14.656c8.094 0 14.656 6.562 14.656 14.656-0.008 8.092-6.566 14.649-14.657 14.656z"></path>
</svg>
<svg id="icon-checkbox-bold" width="32" height="32" viewBox="0 0 32 32" x="48" y="0">
<path fill="#fff" d="M6.633 0.016c-3.675 0.004-6.653 2.981-6.657 6.656v18.64c0 0.002 0 0.003 0 0.005 0 3.679 2.98 6.662 6.658 6.667h18.733c3.677-0.006 6.655-2.989 6.655-6.667 0-0.002 0-0.003 0-0.005v-18.64c-0.005-3.674-2.982-6.651-6.656-6.656h-18.733zM7.36 3.040h17.28c2.386 0 4.32 1.934 4.32 4.32v17.28c0 2.386-1.934 4.32-4.32 4.32h-17.28c-2.386 0-4.32-1.934-4.32-4.32v-17.28c0-2.386 1.934-4.32 4.32-4.32zM26.19 11.136l-12.312 12.304-2.824-2.816-4.912-4.912 2.826-2.832 4.912 4.912 9.488-9.488z"></path>
</svg>
<svg id="icon-checkbox-thin" width="32" height="32" viewBox="0 0 32 32" x="96" y="0">
<path fill="#fff" d="M6.633 0.016c-3.675 0.004-6.653 2.981-6.657 6.656v18.64c0 0.002 0 0.003 0 0.005 0 3.679 2.98 6.662 6.658 6.667h18.733c3.677-0.006 6.655-2.989 6.655-6.667 0-0.002 0-0.003 0-0.005v-18.64c-0.005-3.674-2.982-6.651-6.656-6.656h-18.733zM6.4 1.6h19.2c2.651 0 4.8 2.149 4.8 4.8v19.2c0 2.651-2.149 4.8-4.8 4.8h-19.2c-2.651 0-4.8-2.149-4.8-4.8v-19.2c0-2.651 2.149-4.8 4.8-4.8zM26.19 11.136l-12.312 12.304-2.824-2.816-4.912-4.912 2.826-2.832 4.912 4.912 9.488-9.488z"></path>
</svg>
<svg id="icon-fb" width="32" height="32" viewBox="0 0 32 32" x="144" y="0">
<path opacity="0.8" fill="#fff" d="M15.971 0.010c8.827 0.001 15.983 7.157 15.983 15.985s-7.157 15.985-15.985 15.985-15.985-7.157-15.985-15.985c0-0.001 0-0.002 0-0.003 0-8.826 7.155-15.982 15.982-15.982 0.002 0 0.004 0 0.005 0zM16.759 25.47v-9.465h2.795l0.29-3.148h-3.085v-1.895c0-0.907 0.087-1.284 1.393-1.284h1.797v-3.484h-2.844c-3.356 0-4.159 1.569-4.159 4.422v2.241h-1.924v3.148h1.93v9.465h3.808z"></path>
</svg>
<svg id="icon-footer-logo" width="94" height="32" viewBox="0 0 94 32" x="192" y="0">
<path fill="#fff" d="M38.735 23.331c0.174-0.007 0.338-0.038 0.492-0.091l-0.012 1.164c-0.293 0.116-0.633 0.183-0.989 0.183-0.011 0-0.022-0-0.033-0-0.036 0.004-0.080 0.006-0.125 0.006-0.584 0-1.087-0.345-1.317-0.843-0.716 0.573-1.635 0.925-2.637 0.925-0.034 0-0.068-0-0.101-0.001-0.074 0.010-0.165 0.015-0.257 0.015-1.239 0-2.246-0.994-2.267-2.229-0-1.86 1.718-2.427 3.227-2.427 0.671 0.008 1.321 0.083 1.947 0.221l-0.063-0.265c0-0.907-0.663-1.544-1.901-1.544-0.945 0.001-1.841 0.206-2.648 0.575l0.040-1.49c0.825-0.295 1.777-0.47 2.769-0.48 2.054-0 3.354 0.977 3.354 3.166v2.59c-0.003 0.019-0.004 0.041-0.004 0.063 0 0.257 0.208 0.465 0.465 0.465 0.022 0 0.044-0.002 0.065-0.005zM33.144 22.354c0.048 0.61 0.554 1.087 1.172 1.087 0.063 0 0.126-0.005 0.186-0.015-0.001 0.001 0.006 0.001 0.013 0.001 0.813 0 1.55-0.33 2.082-0.863l0-1.221c-0.465-0.103-1.006-0.169-1.559-0.183-0.927-0-1.895 0.288-1.895 1.195zM43.872 17.051c0.034-0.001 0.074-0.002 0.114-0.002 0.779 0 1.51 0.208 2.14 0.571l-0.021 1.463c-0.554-0.377-1.238-0.602-1.975-0.602-0.011 0-0.022 0-0.033 0-0.053-0.005-0.117-0.007-0.182-0.007-1.318 0-2.387 1.069-2.387 2.387s1.069 2.387 2.387 2.387c0.055 0 0.11-0.002 0.164-0.006 0.769-0.004 1.496-0.211 2.125-0.569l-0.021 1.503c-0.67 0.315-1.455 0.498-2.284 0.498-0.040 0-0.081-0-0.121-0.001-0.070 0.006-0.158 0.009-0.247 0.009-2.019 0-3.656-1.637-3.656-3.656 0-0.036 0.001-0.072 0.002-0.108-0.002-0.034-0.002-0.079-0.002-0.125 0-2.071 1.679-3.75 3.75-3.75 0.087 0 0.173 0.003 0.258 0.009zM54.443 23.331c0.174-0.007 0.338-0.038 0.492-0.091l-0.012 1.164c-0.293 0.116-0.633 0.183-0.989 0.183-0.011 0-0.022-0-0.033-0-0.036 0.004-0.080 0.006-0.125 0.006-0.584 0-1.087-0.345-1.317-0.843-0.716 0.573-1.635 0.925-2.637 0.925-0.034 0-0.068-0-0.101-0.001-0.074 0.010-0.165 0.015-0.257 0.015-1.239 0-2.246-0.994-2.267-2.229-0-1.86 1.718-2.427 3.218-2.427 0.674 0.008 1.327 0.083 1.956 0.221l-0.063-0.265c0-0.907-0.672-1.544-1.901-1.544-0.945 0.001-1.841 0.206-2.648 0.575l0.040-1.49c0.825-0.296 1.778-0.471 2.769-0.48 2.054-0 3.345 0.977 3.345 3.166v2.59c-0.002 0.017-0.003 0.037-0.003 0.057 0 0.26 0.211 0.471 0.471 0.471 0.023 0 0.045-0.002 0.067-0.005zM48.852 22.354c0.048 0.61 0.554 1.087 1.172 1.087 0.063 0 0.126-0.005 0.186-0.015-0.003 0.001 0.002 0.001 0.007 0.001 0.815 0 1.553-0.33 2.088-0.864l-0-1.221c-0.465-0.102-1.005-0.168-1.558-0.183-0.936-0-1.896 0.288-1.896 1.195zM63.391 13.929v10.553h-1.439v-1.151c-0.624 0.82-1.6 1.344-2.698 1.344-0.026 0-0.053-0-0.079-0.001-2.003-0.125-3.584-1.784-3.584-3.811s1.58-3.686 3.577-3.811c0.039-0.001 0.072-0.002 0.105-0.002 0.998 0 1.894 0.434 2.511 1.123l0.003-4.244h1.605zM59.458 18.464c-1.258 0.086-2.245 1.127-2.245 2.398s0.988 2.313 2.238 2.398c1.038-0.002 1.924-0.622 2.312-1.51l0.006-1.778c-0.403-0.894-1.285-1.506-2.311-1.509zM68.624 17.051c2.878 0 3.872 2.32 3.41 4.413h-5.442c0.183 1.3 1.448 1.84 2.773 1.84 0.007 0 0.015 0 0.024 0 0.825 0 1.606-0.19 2.301-0.528l-0.031 1.4c-0.723 0.315-1.566 0.499-2.451 0.499-0.052 0-0.104-0.001-0.155-0.002-2.208 0-4.092-1.265-4.092-3.811-0.003-0.057-0.005-0.123-0.005-0.19 0-2 1.622-3.622 3.622-3.622 0.016 0 0.032 0 0.048 0zM68.703 18.385c-0.045-0.004-0.098-0.006-0.152-0.006-1.058 0-1.923 0.831-1.976 1.876l4.012 0.005c0.005-0.051 0.009-0.111 0.009-0.172 0-0.946-0.767-1.713-1.713-1.713-0.063 0-0.126 0.003-0.187 0.010zM73.674 24.482v-7.239h1.43v0.907c0.599-0.664 1.457-1.083 2.413-1.099 0.054-0.004 0.113-0.006 0.173-0.006 0.878 0 1.649 0.462 2.082 1.156 0.638-0.678 1.533-1.118 2.53-1.149 0.037-0.002 0.075-0.002 0.112-0.002 1.465 0 2.653 1.188 2.653 2.653 0 0.089-0.004 0.177-0.013 0.264l0.001 4.516h-1.614v-4.483c0.005-0.043 0.007-0.093 0.007-0.144 0-0.76-0.616-1.375-1.375-1.375-0.022 0-0.044 0-0.066 0.002-0.735 0.047-1.377 0.418-1.789 0.97 0.014 0.152 0.027 0.325 0.030 0.499l0 4.531h-1.614v-4.483c0.005-0.043 0.007-0.093 0.007-0.144 0-0.76-0.616-1.375-1.375-1.375-0.022 0-0.044 0-0.066 0.002-0.797 0.062-1.487 0.487-1.91 1.107l-0.006 4.893h-1.614zM92.173 17.243h1.683l-3.393 8.216c-0.776 1.884-1.805 2.521-2.904 2.521-0.341-0.007-0.667-0.051-0.981-0.128l0.030-1.372c0.219 0.072 0.472 0.113 0.734 0.113 0.003 0 0.005 0 0.008 0 0.785 0 1.369-0.558 1.788-1.692l0.157-0.358-3.436-7.3h1.718l2.442 5.46zM33.615 1.256v4.117c0.595-0.607 1.421-0.986 2.336-0.994 0.052-0.003 0.111-0.005 0.17-0.005 1.556 0 2.818 1.262 2.818 2.818 0 0.051-0.001 0.101-0.004 0.151l0 4.467h-1.614v-4.265c0.006-0.051 0.009-0.11 0.009-0.17 0-0.867-0.703-1.57-1.57-1.57-0.043 0-0.086 0.002-0.128 0.005-0.851 0.052-1.587 0.519-2.012 1.201l-0.006 4.799h-1.614v-10.553h1.614zM43.357 1.997v2.582h2.625v1.413h-2.625v3.314c0 0.951 0.436 1.265 1.369 1.265 0.528-0.001 1.031-0.103 1.492-0.289l-0.027 1.396c-0.572 0.199-1.232 0.314-1.919 0.314-0.009 0-0.019-0-0.028-0-0.082 0.011-0.179 0.018-0.278 0.018-1.223 0-2.214-0.991-2.214-2.214 0-0.065 0.003-0.129 0.008-0.192l-0.001-3.611h-1.3v-1.413h1.3v-2.189zM48.041 11.809v-7.23h1.43v0.898c0.599-0.664 1.457-1.083 2.413-1.099 0.051-0.003 0.107-0.005 0.164-0.005 0.881 0 1.654 0.461 2.092 1.155 0.643-0.677 1.539-1.116 2.538-1.15 0.034-0.001 0.066-0.002 0.099-0.002 1.468 0 2.658 1.19 2.658 2.658 0 0.090-0.005 0.179-0.013 0.267l0.001 4.507h-1.614v-4.474c0.005-0.043 0.008-0.094 0.008-0.145 0-0.763-0.619-1.382-1.382-1.382-0.020 0-0.039 0-0.058 0.001-0.736 0.050-1.378 0.424-1.789 0.979 0.014 0.152 0.027 0.325 0.030 0.499l0 4.522h-1.614v-4.474c0.005-0.043 0.008-0.094 0.008-0.145 0-0.763-0.619-1.382-1.382-1.382-0.020 0-0.039 0-0.058 0.001-0.797 0.066-1.485 0.489-1.91 1.108l-0.006 4.893h-1.614zM61.786 11.809h1.605v-10.553h-1.605v10.553zM12.764 0.017l-0.133-0.017-12.633 1.326v23.156l12.633 7.509 12.637-7.509v-23.156zM23.611 23.54l-10.98 6.533-10.98-6.533v-9.489l10.933 6.506 0.018 1.177-7.501-4.466-0.011 1.151 7.53 4.518 0.018 1.212-7.528-4.474-0.010 1.143 7.529 4.527 7.604-4.553v-1.143h-0.009v-3.742l3.384-2.023v9.655zM23.603 12.655l-4.387 2.59-6.616-3.934-0.011 1.143 5.651 3.367-0.052 0.026-0.113 0.070-0.811 0.471-4.663-2.774-0.011 1.143 3.68 2.198-0.89 0.593-2.779-1.64-0.011 1.143 1.822 1.073-1.856 1.116-10.879-6.463 10.894-6.55zM23.611 11.504l-11.039-6.506-10.918 6.498v-8.678l10.98-1.151 10.98 1.151v8.687z"></path>
</svg>
<svg id="icon-heart" width="37" height="32" viewBox="0 0 37 32" x="336" y="0">
<path fill="#f7f8f8" d="M18.356 32.025s18.414-9.1 18.414-20.777c0-12.967-13.902-15.014-18.452-4.322zM18.442 32.025s-18.414-9.1-18.414-20.777c0-12.967 13.902-15.014 18.452-4.322z"></path>
</svg>
<svg id="icon-icecream" width="32" height="32" viewBox="0 0 32 32" x="384" y="0">
<path d="M20.020 6.511c1.048 1.041 1.696 2.484 1.696 4.078 0 0.005 0 0.011-0 0.015v9.915c0 0 0 0.001 0 0.001 0 0.301-0.244 0.546-0.546 0.546-0 0-0 0-0.001 0h-10.491c-0 0-0 0-0.001 0-0.301 0-0.546-0.244-0.546-0.546 0-0 0-0.001 0-0.001v-9.915c0.001-3.198 2.594-5.789 5.791-5.789 1.599 0 3.047 0.648 4.096 1.697zM20.627 19.971l-0.015-6.577c-0.352-0.141-0.659-0.373-0.897-0.674-0.128-0.224-0.362-0.381-0.638-0.4-0.092 0.074-0.163 0.172-0.189 0.246-0.127 0.264-0.239 0.536-0.361 0.913-0.125 0.384-0.285 0.753-0.463 1.076-0.18 0.424-0.6 0.721-1.090 0.721s-0.91-0.297-1.076-0.695c-0.191-0.349-0.352-0.718-0.505-1.199-0.095-0.28-0.206-0.553-0.316-0.777-0.043-0.112-0.114-0.21-0.21-0.286-0.272 0.020-0.506 0.177-0.64 0.411-0.32 0.458-0.851 0.757-1.451 0.757s-1.132-0.3-1.455-0.763c-0.034-0.041-0.066-0.074-0.097-0.108v7.355h9.398zM14.54 25.766v-4.16h2.769v4.16c0 0.765-0.62 1.385-1.385 1.385s-1.385-0.62-1.385-1.385zM15.998-0.007c0 0 0 0 0 0-8.84 0-16.007 7.166-16.007 16.007s7.166 16.007 16.007 16.007c8.84 0 16.007-7.166 16.007-16.007s-7.166-16.007-16.007-16.007zM15.998 30.656c-8.094 0-14.656-6.562-14.656-14.656s6.562-14.656 14.656-14.656c8.094 0 14.656 6.562 14.656 14.656-0.008 8.091-6.565 14.648-14.655 14.656z"></path>
</svg>
<svg id="icon-insta" width="32" height="32" viewBox="0 0 32 32" x="432" y="0">
<path opacity="0.8" fill="#fff" d="M15.971 0.010c8.827 0.001 15.983 7.157 15.983 15.985s-7.157 15.985-15.985 15.985-15.985-7.157-15.985-15.985c0-0.001 0-0.001 0-0.002 0-8.827 7.156-15.983 15.983-15.983 0.001 0 0.003 0 0.004 0zM22.36 24.064c0 0 0 0 0 0 0.982 0 1.778-0.796 1.778-1.778 0-0.002 0-0.004 0-0.005v-12.541c-0.002-0.979-0.796-1.773-1.776-1.773-0.001 0-0.001 0-0.002 0h-12.558c-0.001 0-0.001 0-0.002 0-0.98 0-1.774 0.793-1.776 1.773v12.541c0 0.002 0 0.003 0 0.005 0 0.982 0.796 1.778 1.778 1.778 0 0 0 0 0 0h12.56zM20.959 14.793c0.101 0.376 0.159 0.809 0.159 1.254 0 2.769-2.245 5.013-5.013 5.013s-5.013-2.245-5.013-5.013c0-0.446 0.058-0.878 0.167-1.289l-1.414 0.035v6.907c0 0 0 0.001 0 0.001 0 0.343 0.278 0.62 0.62 0.62 0.001 0 0.001 0 0.002 0h11.273c0.001 0 0.002 0 0.003 0 0.343 0 0.62-0.278 0.62-0.62 0-0 0-0.001 0-0.001v-6.907h-1.406zM16.109 13.152c0.065-0.005 0.141-0.008 0.217-0.008 1.602 0 2.901 1.299 2.901 2.902s-1.299 2.901-2.901 2.901c-0.076 0-0.152-0.003-0.227-0.009-1.588 0.001-2.883-1.295-2.883-2.893s1.295-2.893 2.893-2.893zM19.878 9.78h1.9c0.001 0 0.002 0 0.003 0 0.342 0 0.619 0.277 0.619 0.619 0 0.001 0 0.001 0 0.002v1.895c0 0.001 0 0.001 0 0.002 0 0.342-0.277 0.619-0.619 0.619-0.001 0-0.002 0-0.003 0h-1.9c-0.001 0-0.001 0-0.002 0-0.343 0-0.62-0.278-0.62-0.62 0-0 0-0.001 0-0.001v-1.895c0-0 0-0.001 0-0.001 0-0.343 0.278-0.62 0.62-0.62 0.001 0 0.001 0 0.002 0z"></path>
</svg>
<svg id="icon-leaf" width="32" height="32" viewBox="0 0 32 32" x="480" y="0">
<path d="M15.955 26.887c0 0 15.021-6.875 0-22.119-15.021 15.244-48.248-990.71 0 22.119zM21.019 15.223c0.16 0.672 0.244 1.374 0.244 2.095 0 0.099-0.002 0.198-0.004 0.283l-4.656 2.978 0.014-2.485 4.414-2.81zM10.637 17.442c-0-0.022-0-0.044-0-0.067 0-0.766 0.094-1.51 0.257-2.159l4.358 2.803v2.445l-4.615-3.026zM11.327 13.764c0.274-0.75 0.607-1.472 0.956-2.086l2.969 2.283v2.452zM13.047 10.431c0.676-1.024 1.422-1.998 2.205-2.886v4.755zM16.603 12.488l-0.025-5.040c0.88 0.996 1.687 2.059 2.476 3.284l-2.451 1.756zM19.701 11.817c0.351 0.642 0.655 1.312 0.941 2.109l-4.040 2.6 0.014-2.485zM20.947 19.45c-0.761 2.286-2.299 4.218-4.344 5.506l0.014-2.81 4.352-2.769zM15.255 24.915c-1.418-0.952-3.59-2.837-4.336-5.633l4.334 2.789v2.843zM15.998-0.007c-0.001 0-0.001 0-0.002 0-8.84 0-16.007 7.166-16.007 16.007s7.166 16.007 16.007 16.007c8.84 0 16.007-7.166 16.007-16.007s-7.166-16.007-16.007-16.007zM15.996 30.656c-8.094 0-14.656-6.562-14.656-14.656s6.562-14.656 14.656-14.656c8.094 0 14.656 6.562 14.656 14.656-0.008 8.090-6.564 14.646-14.653 14.656z"></path>
</svg>
<svg id="icon-login" width="34" height="32" viewBox="0 0 34 32" x="528" y="0">
<path fill="#fff" d="M5.053 6.683v-1.617c0-2.791 2.262-5.053 5.053-5.053h18.626c2.791 0 5.053 2.262 5.053 5.053v21.858c0 2.791-2.262 5.053-5.053 5.053h-18.626c-2.79 0-5.053-2.262-5.053-5.053v-1.661h3.368v3.368h21.895v-25.263h-21.895v3.315h-3.368zM0 20.234h10.154v4.62l11.835-8.926-11.835-8.926v4.62h-10.154v8.613z"></path>
</svg>
<svg id="icon-login-black" width="34" height="32" viewBox="0 0 34 32" x="576" y="0">
<path d="M5.053 6.683v-1.617c0-2.791 2.262-5.053 5.053-5.053h18.626c2.791 0 5.053 2.262 5.053 5.053v21.856c0 2.791-2.262 5.053-5.053 5.053h-18.626c-2.79 0-5.053-2.262-5.053-5.053v-1.659h3.368v3.368h21.895v-25.263h-21.895v3.316h-3.368zM0 20.234h10.154v4.62l11.835-8.926-11.835-8.926v4.62h-10.154v8.611z"></path>
</svg>
<svg id="icon-logo" width="77" height="32" viewBox="0 0 77 32" x="624" y="0">
<path fill="#fff" d="M76.143 22.584c-0.881-0.939-2.139-1.052-3.541-1.052h-0.119c-1.141-1.254-2.733-2.081-4.518-2.225-1.795-0.116-3.243-0.115-4.494 0.419 0.042-0.338 0.077-0.782 0.106-1.125 0.204 0.071 0.44 0.111 0.685 0.111 0.050 0 0.1-0.002 0.149-0.005 1.546 0 3.174-1.307 3.316-4.173 0.067-1.581-0.192-2.738-0.751-3.32-0.245-0.267-0.594-0.435-0.982-0.439-0.834 0-1.614 0.73-2.224 2.052 0-0.145-0.004-0.273-0.006-0.39-0.004-0.242-0.008-0.441-0.008-0.664 0-0.559-0.027-0.876-0.575-0.876-0.216 0.005-0.409 0.097-0.547 0.242-0.195 0.226-0.314 0.522-0.314 0.845 0 0.048 0.003 0.095 0.008 0.142 0.013 0.694 0.016 1.403 0.008 2.16-0.253 1.136-0.711 2.029-1.183 2.378 0.259-0.624 0.456-1.35 0.558-2.107 0.215-1.574-0.016-2.898-0.616-3.587-0.196-0.259-0.504-0.425-0.85-0.425-0.055 0-0.108 0.004-0.161 0.012-0.427 0.085-0.796 0.313-1.059 0.633-0.087-0.135-0.238-0.226-0.41-0.226-0.083 0-0.16 0.021-0.228 0.058-1.303 0.516-2.134 2.036-2.219 4.065-0.012 0.116-0.018 0.251-0.018 0.387 0 1.011 0.368 1.936 0.977 2.648 0.393 0.427 0.959 0.699 1.59 0.703 0.782-0.043 1.456-0.465 1.845-1.085 0.714-0.082 1.322-0.464 1.696-1.016-0.055 1.253-0.152 2.491-0.282 3.685-1.11 0.877-1.999 1.984-2.603 3.254-1.026 2.045-0.916 3.873-0.389 4.729 0.162 0.318 0.477 0.538 0.845 0.563 1.566 0 2.822-4.338 3.432-8.102 1.082-0.637 2.383-1.013 3.771-1.013 0.174 0 0.347 0.006 0.518 0.018-0.017-0.001-0.010-0.001-0.002-0.001 1.286 0 2.475 0.414 3.441 1.117-1.617 0.494-2.794 1.876-2.993 3.557-0.029 0.167-0.044 0.336-0.044 0.508 0 0.665 0.23 1.277 0.615 1.759 0.385 0.433 0.951 0.709 1.582 0.709 0.067 0 0.133-0.003 0.198-0.009 0.867-0.022 1.648-0.409 2.192-1.013 0.603-0.742 0.966-1.695 0.966-2.732 0-0.174-0.010-0.346-0.030-0.515-0.030-0.491-0.139-0.968-0.315-1.411 1.988 0.355 3.177 2.048 3.074 4.462-0.165 2.645-2.337 4.731-5.003 4.759-1.521 0-2.634-0.371-3.219-1.073-0.308-0.386-0.494-0.882-0.494-1.421 0-0.173 0.019-0.341 0.055-0.503 0.012-0.058 0.026-0.121 0.039-0.176 0.029-0.063 0.046-0.137 0.046-0.215 0-0.098-0.027-0.19-0.073-0.269-0.059-0.071-0.15-0.118-0.251-0.118-0.006 0-0.011 0-0.017 0-0.069 0.002-0.136 0.012-0.201 0.029-0.707 0.211-1.222 0.849-1.248 1.612-0 1.489 1.583 3.089 5.059 3.089 3.611 0 6.291-2.19 6.519-5.616 0.016-0.146 0.025-0.315 0.025-0.486 0-1.288-0.506-2.458-1.33-3.322zM58.457 12.193c-0.212 0.603-0.334 1.299-0.334 2.024 0 0.252 0.015 0.5 0.043 0.744 0.047 0.987 0.546 1.877 1.298 2.454-0.112 0.087-0.259 0.135-0.417 0.135-0.247 0-0.466-0.117-0.606-0.298-0.422-0.554-0.675-1.253-0.675-2.011 0-0.137 0.008-0.273 0.024-0.405-0.002-0.005-0.002-0.030-0.002-0.055 0-0.95 0.248-1.842 0.683-2.614zM60.673 14.59c-0.015 0.764-0.202 1.481-0.523 2.118-0.58-0.393-0.829-1.293-0.86-2.009-0.064-1.277 0.476-2.375 0.905-2.498 0.041 0.009 0.077 0.032 0.101 0.063 0.238 0.252 0.457 1.087 0.377 2.326zM64.381 17.677c-0.021 0.001-0.045 0.002-0.069 0.002-0.238 0-0.458-0.075-0.639-0.202l0.036-0.517c0.533-3.438 1.572-4.894 1.896-4.894 0.051 0.002 0.095 0.028 0.123 0.066 0.232 0.246 0.44 1.094 0.333 2.732-0.125 1.763-0.754 2.814-1.681 2.814zM60.162 27.334c-0.063-0.017-0.114-0.060-0.141-0.117-0.246-0.398-0.284-1.643 0.616-3.445 0.312-0.62 0.673-1.154 1.092-1.636-0.533 3.368-1.271 5.055-1.567 5.199zM71.608 25.928c-0.255 0.283-0.622 0.461-1.030 0.463h-0.054c-0.011 0-0.024 0.001-0.037 0.001-0.369 0-0.699-0.164-0.922-0.422-0.221-0.313-0.352-0.7-0.352-1.118 0-0.165 0.020-0.325 0.059-0.478 0.193-1.289 1.203-2.308 2.484-2.514 0.315 0.481 0.501 1.060 0.529 1.681 0.015 0.123 0.023 0.256 0.023 0.391 0 0.759-0.263 1.456-0.704 2.005zM56.076 18.744c-0.357-0.13-0.727-0.976-0.455-4.272 0.146-1.875 0.206-2.96-0.245-3.448-0.15-0.159-0.363-0.259-0.599-0.259-0.011 0-0.021 0-0.032 0.001-1.082-0-2.126 1.319-2.853 2.9 0.014-1.251 0.099-2.466 0.249-3.661 1.126-0.4 2.026-1.307 2.559-2.422 0.934-1.841 0.816-3.767 0.222-4.735-0.158-0.321-0.47-0.546-0.837-0.579-1.378-0-2.65 2.877-3.259 7.347-0.302 0.074-0.65 0.116-1.007 0.116-0.291 0-0.575-0.028-0.85-0.082-0.145-0.026-0.296-0.067-0.442-0.121 0.9-0.614 1.474-1.62 1.494-2.761 0.010-0.096 0.016-0.204 0.016-0.313 0-0.753-0.277-1.442-0.734-1.97-0.658-0.653-1.569-1.060-2.575-1.060-0.030 0-0.059 0-0.089 0.001-0.056-0-0.117-0.003-0.179-0.003-2.251 0-4.63 1.214-4.821 3.537-0.195 2.041 1.615 3.23 3.365 4.38l0.354 0.231c1.673 1.123 3.154 2.29 2.916 4.223-0.194 1.586-2.193 2.863-4.322 2.698-1.056-0.055-1.987-0.544-2.627-1.292-0.475-0.584-0.76-1.331-0.76-2.144 0-0.164 0.012-0.324 0.034-0.482 0.132-0.982 0.569-1.746 1.563-2.719 0.163-0.116 0.268-0.304 0.268-0.516 0-0.043-0.004-0.085-0.012-0.125-0.064-0.128-0.197-0.218-0.352-0.218-0.053 0-0.103 0.010-0.149 0.029-0.576 0.113-1.089 0.329-1.542 0.63-0.67 0.659-1.106 1.582-1.142 2.606-0.12 2.138 0.976 4.842 4.459 5.443 0.318 0.057 0.684 0.090 1.058 0.091 2.837 0 5.092-1.911 5.246-4.446 0.137-2.378-1.696-3.713-3.426-4.781l-0.19-0.114c-1.679-1.017-3.265-1.977-3.018-3.863 0.195-1.441 1.573-2.087 2.852-2.087 0.091 0 0.181 0.003 0.273 0.009 1.417 0.091 2.21 0.902 2.231 2.283 0.002 0.035 0.003 0.077 0.003 0.119 0 0.551-0.202 1.054-0.535 1.441-0.121 0.138-0.296 0.232-0.492 0.25-0.199-0.020-0.361-0.151-0.423-0.33-0.061-0.185-0.096-0.394-0.096-0.611 0-0.176 0.023-0.347 0.066-0.51l0.038-0.113c0.048-0.080 0.077-0.176 0.077-0.279 0-0.089-0.021-0.172-0.059-0.246-0.058-0.075-0.152-0.126-0.257-0.126-0.005 0-0.010 0-0.015 0-0.070 0.002-0.138 0.012-0.202 0.028-0.611 0.154-1.073 0.668-1.15 1.301-0.044 1.21 0.678 2.598 2.836 2.886 0.313 0.047 0.673 0.075 1.040 0.075 0.414 0 0.82-0.034 1.215-0.101-0.18 1.271-0.269 2.611-0.306 3.998-0.017 0.823-0.031 1.306-0.041 1.67-0.015 0.547-0.023 0.819-0.023 1.556 0 0.63 0.093 0.855 0.618 0.855 0.288 0 0.783-0.242 0.809-1.117 0.521-3.452 1.947-5.36 2.315-5.38 0.017 0.129 0.028 0.278 0.028 0.43 0 0.22-0.021 0.435-0.061 0.643-0.047 0.459-0.108 1.056-0.123 1.775-0.063 2.956 0.509 4.458 1.746 4.591 0.613 0.075 0.727-0.202 0.75-0.316 0.002-0.016 0.003-0.034 0.003-0.052 0-0.24-0.171-0.441-0.398-0.487zM52.288 8.972c0.493-3.174 1.236-4.978 1.512-5.102 0.070 0.050 0.122 0.121 0.147 0.204 0.102 0.358 0.16 0.766 0.16 1.187 0 0.805-0.212 1.561-0.584 2.214-0.286 0.59-0.708 1.099-1.225 1.49zM39.264 11.168l-0.075-0.097c-0.090-0.092-0.215-0.15-0.354-0.15-0.022 0-0.044 0.001-0.065 0.004-0.438-0-1.161 0.21-1.226 0.765-0.061 0.387-0.126 1.045-0.173 1.746-0.33 2.648-1.113 4.113-1.53 4.113-0.002 0-0.005 0-0.008 0-0.146 0-0.276-0.067-0.362-0.172-0.541-0.614-0.599-2.641-0.173-6.021l0.009-0.138-0.075-0.088c-0.087-0.082-0.205-0.132-0.335-0.132-0.020 0-0.041 0.001-0.060 0.004-0.444-0-1.176 0.212-1.242 0.785-0.083 0.682-0.131 1.471-0.131 2.272 0 0.416 0.013 0.829 0.038 1.238-0.303 0.905-0.975 2.465-2.187 2.465-0.342-0.009-0.647-0.161-0.859-0.397-0.48-0.614-0.77-1.395-0.77-2.245 0-0.126 0.006-0.25 0.019-0.372 0.081-1.857 0.648-3.326 1.291-3.326 0.013-0.002 0.027-0.002 0.042-0.002 0.119 0 0.225 0.057 0.291 0.146 0.203 0.289 0.116 0.992-0.077 1.533l-0.043 0.114c-0.059 0.087-0.094 0.195-0.094 0.311 0 0.084 0.018 0.163 0.051 0.234 0.069 0.084 0.176 0.14 0.296 0.14 0.057 0 0.111-0.013 0.16-0.035 0.375-0.070 1.146-0.475 1.212-0.979 0.009-0.084 0.015-0.181 0.015-0.279 0-0.6-0.201-1.152-0.54-1.594-0.265-0.281-0.647-0.461-1.071-0.461-0.018 0-0.036 0-0.054 0.001-1.642-0-2.977 1.922-3.105 4.472-0.006 0.163-0.004 0.322 0 0.476-0.449 1.755-0.817 2.367-0.961 2.499-0.12-0.202-0.279-1.174 0.219-3.789l0.010-0.14-0.075-0.088c-0.098-0.089-0.23-0.144-0.373-0.144-0.023 0-0.045 0.001-0.067 0.004-0.035-0.005-0.079-0.008-0.123-0.008-0.472 0-0.874 0.298-1.028 0.716-0.026 0.133-0.044 0.285-0.053 0.439l-0.013 0.17c-0.28 1.568-0.842 2.389-1.253 2.389-0.092-0.018-0.171-0.069-0.222-0.141-0.339-0.383-0.63-1.38-0.471-2.666 0.207-1.728 0.911-2.889 1.745-2.889 0.025-0.004 0.054-0.006 0.083-0.006 0.166 0 0.316 0.066 0.426 0.174 0.050 0.125 0.079 0.269 0.079 0.421 0 0.185-0.043 0.36-0.121 0.515l-0.022 0.062c-0.070 0.102-0.111 0.229-0.111 0.365 0 0.093 0.019 0.181 0.054 0.261 0.075 0.084 0.187 0.139 0.311 0.139 0.051 0 0.1-0.009 0.145-0.026 0.377-0.070 1.146-0.518 1.211-1.027 0.003-0.039 0.005-0.085 0.005-0.131 0-0.418-0.16-0.798-0.421-1.084-0.341-0.333-0.809-0.54-1.326-0.54-0.042 0-0.084 0.001-0.125 0.004-1.425-0-3.215 1.082-3.546 4.148-0.536 1.78-1.217 2.61-1.509 2.61-0.386 0-0.99-1.139-1.139-3.671 1.121-1.876 2.049-4.043 2.673-6.337 0.459-1.977 0.739-4.891 0.055-5.753-0.126-0.171-0.326-0.281-0.551-0.283-1.997 0-3.606 6.149-3.88 10.558-0.016 0.246-0.025 0.534-0.025 0.824 0 0.429 0.020 0.853 0.058 1.272-0.451 2.064-1.294 3.413-1.681 3.413-0.362 0-0.93-1.080-1.074-3.481 1.067-1.786 1.952-3.851 2.546-6.035 0.438-1.886 0.703-4.667 0.050-5.491-0.122-0.166-0.316-0.272-0.535-0.274-1.91 0-3.446 5.863-3.708 10.068-0.176 3.040 0.66 5.070 1.43 5.886 0.255 0.309 0.629 0.512 1.050 0.541 0.937 0 1.775-1.265 2.319-2.584 0.487 1.581 1.315 2.594 2.166 2.594 0.649 0 1.346-0.626 1.961-1.74 0.368 1.042 1.092 1.582 1.717 1.582 0.027 0 0.055 0 0.086-0.004 0.596-0.051 1.167-0.514 1.648-1.318 0.194 1.084 0.615 1.728 1.164 1.728 0.667 0 1.229-0.933 1.634-1.908 0.421 0.986 1.365 1.673 2.475 1.714 1.049 0 2.048-0.745 2.808-2.069 0.467 1.54 1.312 1.79 1.811 1.79s0.984-0.36 1.424-1.037l-0.015 0.14c-1.21 1.372-2.178 2.992-2.816 4.768-0.564 1.588-0.551 3.17-0.001 3.951 0.172 0.273 0.469 0.454 0.808 0.461 0.938 0 2.353-1.282 3.836-12.364 0.233-1.61 0.405-3.366 0.405-3.366zM14.986 12.174c0.182-3.119 1.222-7.313 1.745-8.017 0.147 0.445 0.173 2.061-0.324 3.971-0.426 1.584-0.911 2.93-1.492 4.223zM19.408 11.927c0.182-3.324 1.302-7.826 1.853-8.513 0.162 0.437 0.202 2.151-0.332 4.199-0.454 1.687-0.973 3.121-1.596 4.499zM36.746 19.815c-0.564 3.885-1.185 5.518-1.47 5.633-0.068-0.020-0.124-0.066-0.157-0.125-0.236-0.34-0.311-1.179 0.185-2.517 0.435-1.154 0.92-2.14 1.486-3.070zM30.144 20.928c-0.089-0.087-0.206-0.145-0.337-0.16-0.164 0.016-0.295 0.13-0.336 0.282-0.044 0.099-0.085 0.178-0.13 0.254-0.296 0.533-1.276 0.812-2.906 0.812-2.424-0.094-4.718-0.366-6.951-0.805-2.399-0.409-5.456-0.895-7.967-1.070 0.501-2.301 0.866-5.024 1.019-7.803 0.006-0.437-0.449-0.504-0.611-0.504-0.202 0-0.864 0.083-0.903 1.158l-0.067 1.292c-0.236 1.272-0.945 3.421-3.044 3.523-0.047 0-0.094 0.004-0.14 0.004v0c-0.013 0-0.029 0-0.044 0-0.807 0-1.53-0.36-2.017-0.929-0.998-1.128-1.417-3.225-1.124-5.613 0.115-0.91 0.306-1.73 0.572-2.515 3.324 0.013 6.518-1.508 7.295-3.416 0.129-0.265 0.205-0.578 0.205-0.907 0-0.403-0.113-0.78-0.309-1.1-0.45-0.669-1.369-0.97-2.499-0.818-2.339 0.304-4.662 2.266-5.964 5.028-1.473-0.416-2.74-1.67-2.418-3.362 0.464-2.482 3.761-3.293 4.844-3.293 0.016-0.001 0.035-0.002 0.054-0.002 0.094 0 0.184 0.013 0.27 0.039 0.133 0.052 0.294 0.084 0.463 0.084 0.028 0.005 0.059 0.008 0.092 0.008 0.225 0 0.418-0.14 0.496-0.338 0.084-0.368-0.412-0.604-0.603-0.695-0.15-0.056-0.324-0.089-0.505-0.089-0.027 0-0.054 0.001-0.081 0.002-1.473-0-5.735 1.031-6.399 4.351-0.059 0.236-0.092 0.506-0.092 0.785 0 0.691 0.208 1.334 0.564 1.87 0.683 0.899 1.681 1.547 2.829 1.778-0.264 0.815-0.482 1.758-0.585 2.735-0.278 2.567 0.268 4.79 1.491 6.154 0.78 0.878 1.912 1.428 3.173 1.428 0.024 0 0.049-0 0.073-0.001l0.148 0c1.162-0.043 2.199-0.544 2.942-1.327-0.113 0.952-0.259 1.775-0.446 2.583q-0.244-0.167-0.505-0.167c-3.001 0-4.677 0.621-5.276 1.951-0.143 0.286-0.227 0.623-0.227 0.98 0 0.457 0.138 0.882 0.374 1.236 0.574 0.841 1.536 1.391 2.627 1.391 0.003 0 0.006 0 0.009 0 0.173 0 0.342-0.015 0.507-0.042 1.612-0.289 2.748-1.69 3.548-4.399 3.060 0.207 5.885 0.622 8.635 1.237 0.118 0.030 0.615 0.138 1.111 0.244 2.702 0.575 5.255 1.118 7.111 1.118 1.067 0 1.807-0.185 2.259-0.563 0.318-0.243 0.521-0.622 0.521-1.049 0-0.020-0-0.040-0.001-0.059-0.041-0.537-0.323-1.004-0.738-1.295zM7.838 24.386c-0.164 0.060-0.354 0.094-0.552 0.096-0.011 0-0.023 0-0.036 0-0.486 0-0.91-0.262-1.14-0.652-0.102-0.2-0.159-0.428-0.159-0.67 0-0.322 0.102-0.62 0.276-0.864 0.271-0.439 1.143-0.964 3.717-1.007-0.527 1.744-1.235 2.784-2.106 3.097zM9.524 3.841c0.127-0.025 0.273-0.039 0.422-0.040 0.027-0.003 0.057-0.004 0.087-0.004 0.27 0 0.512 0.123 0.672 0.315 0.069 0.148 0.109 0.321 0.109 0.502 0 0.228-0.063 0.441-0.171 0.623-0.659 1.383-3.058 2.385-5.056 2.544 0.986-2.108 2.538-3.672 3.938-3.939z"></path>
</svg>
<svg id="icon-magnifiy-black" width="32" height="32" viewBox="0 0 32 32" x="0" y="48">
<path d="M22.888 20.128h-1.448l-0.506-0.5c1.788-2.073 2.876-4.792 2.876-7.766 0-6.585-5.338-11.923-11.923-11.923s-11.923 5.338-11.923 11.923c0 6.585 5.338 11.923 11.923 11.923 2.968 0 5.682-1.084 7.769-2.878l0.489 0.516v1.448l9.152 9.128 2.729-2.727zM11.898 20.128c-4.539-0.009-8.215-3.69-8.215-8.23 0-4.545 3.685-8.23 8.23-8.23s8.23 3.685 8.23 8.23c0 0.001 0 0.001 0 0.002-0.003 4.545-3.688 8.228-8.234 8.228-0.004 0-0.008 0-0.012 0z"></path>
</svg>
<svg id="icon-magnify" width="32" height="32" viewBox="0 0 32 32" x="48" y="48">
<path fill="#fff" d="M22.888 20.128h-1.448l-0.506-0.5c1.782-2.070 2.867-4.784 2.867-7.751 0-6.579-5.333-11.912-11.912-11.912s-11.912 5.333-11.912 11.912c0 6.579 5.333 11.912 11.912 11.912 2.967 0 5.681-1.085 7.766-2.88l0.489 0.516v1.448l9.152 9.128 2.729-2.727zM11.898 20.128c-4.537-0.010-8.211-3.69-8.211-8.228 0-4.544 3.684-8.228 8.228-8.228s8.228 3.684 8.228 8.228c-0.003 4.545-3.688 8.228-8.234 8.228-0.004 0-0.008 0-0.012 0z"></path>
</svg>
<svg id="icon-radio-bold" width="32" height="32" viewBox="0 0 32 32" x="96" y="48">
<path fill="#f8f7f4" d="M15.993 0c-8.828 0.002-15.984 7.159-15.984 15.987 0 0.002 0 0.003 0 0.005 0.005 8.824 7.159 15.976 15.984 15.976 8.828 0 15.984-7.156 15.984-15.984s-7.156-15.984-15.984-15.984zM15.994 3.382c6.965 0 12.61 5.646 12.61 12.61s-5.646 12.61-12.61 12.61c-6.964 0-12.61-5.646-12.61-12.61 0-0.001 0-0.002 0-0.003 0-6.963 5.644-12.607 12.607-12.607 0.002 0 0.003 0 0.005 0zM15.994 7.475c4.703 0.001 8.516 3.814 8.516 8.518s-3.813 8.518-8.518 8.518-8.518-3.813-8.518-8.518c0-0.001 0-0.002 0-0.003 0-4.702 3.812-8.514 8.514-8.514 0.003 0 0.006 0 0.008 0z"></path>
</svg>
<svg id="icon-radio-thin" width="32" height="32" viewBox="0 0 32 32" x="144" y="48">
<path fill="#f8f7f4" d="M15.993 0c-8.828 0.002-15.984 7.159-15.984 15.987 0 0.002 0 0.003 0 0.005 0.005 8.824 7.159 15.976 15.984 15.976 8.828 0 15.984-7.156 15.984-15.984s-7.156-15.984-15.984-15.984zM15.994 1.975c0.002 0 0.004 0 0.006 0 7.741 0 14.017 6.276 14.017 14.017s-6.276 14.017-14.017 14.017c-7.741 0-14.017-6.276-14.017-14.017 0-0.001 0-0.002 0-0.003 0-7.738 6.272-14.012 14.010-14.014zM15.994 7.475c4.703 0.001 8.516 3.814 8.516 8.518s-3.813 8.518-8.518 8.518-8.518-3.813-8.518-8.518c0-0.001 0-0.002 0-0.003 0-4.702 3.812-8.514 8.514-8.514 0.003 0 0.006 0 0.008 0z"></path>
</svg>
<svg id="icon-termometer" width="32" height="32" viewBox="0 0 32 32" x="192" y="48">
<path d="M15.908 26.016c0 0 0.001 0 0.001 0 2.526 0 4.574-2.047 4.575-4.585-0.059-1.161-0.503-2.221-1.2-3.047v-10.070c0-1.865-1.512-3.377-3.377-3.377s-3.377 1.512-3.377 3.377l0.007 10.014c-0.707 0.852-1.159 1.925-1.238 3.117 0.017 2.527 2.071 4.571 4.602 4.571 0.002 0 0.004 0 0.006 0zM15.908 24.665c1.783-0 3.23-1.44 3.241-3.226-0.026-0.999-0.477-1.892-1.185-2.508v-10.617c0-1.119-0.907-2.026-2.026-2.026s-2.026 0.907-2.026 2.026l-0.005 10.581c-0.725 0.618-1.198 1.524-1.241 2.55 0.011 1.781 1.459 3.221 3.242 3.221 0 0 0 0 0 0zM17.736 21.349c-0-0.79-0.492-1.466-1.199-1.742v-11.394c0-0.354-0.287-0.642-0.642-0.642s-0.642 0.287-0.642 0.642l-0.013 11.378c-0.729 0.256-1.252 0.951-1.252 1.768 0 1.035 0.839 1.874 1.874 1.874s1.874-0.839 1.874-1.874c0-0.003 0-0.006-0-0.009zM21.296 10.259c-0.373 0-0.675 0.302-0.675 0.675s0.302 0.675 0.675 0.675h2.702c0.373 0 0.675-0.302 0.675-0.675s-0.302-0.675-0.675-0.675h-2.702zM21.296 7.558c-0.373 0-0.675 0.302-0.675 0.675s0.302 0.675 0.675 0.675h2.702c0.373 0 0.675-0.302 0.675-0.675s-0.302-0.675-0.675-0.675h-2.702zM21.296 12.961c-0.373 0-0.675 0.302-0.675 0.675s0.302 0.675 0.675 0.675h2.702c0.373 0 0.675-0.302 0.675-0.675s-0.302-0.675-0.675-0.675h-2.702zM21.296 15.662c-0.373 0-0.675 0.302-0.675 0.675s0.302 0.675 0.675 0.675h2.702c0.373 0 0.675-0.302 0.675-0.675s-0.302-0.675-0.675-0.675h-2.702zM16.016-0.007c0 0 0 0 0 0-8.84 0-16.007 7.166-16.007 16.007s7.166 16.007 16.007 16.007c8.84 0 16.007-7.166 16.007-16.007s-7.166-16.007-16.007-16.007zM16.016 30.656c-8.094 0-14.656-6.562-14.656-14.656s6.562-14.656 14.656-14.656c8.094 0 14.656 6.562 14.656 14.656-0.008 8.091-6.565 14.648-14.655 14.656z"></path>
</svg>
<svg id="icon-tw" width="32" height="32" viewBox="0 0 32 32" x="240" y="48">
<path opacity="0.8" fill="#fff" d="M15.977 0.010c8.83 0.001 15.988 7.16 15.988 15.99s-7.159 15.99-15.99 15.99-15.99-7.159-15.99-15.99c0-0.001 0-0.001 0-0.002 0-8.83 7.158-15.988 15.988-15.988 0.001 0 0.003 0 0.004 0zM25.289 11.027c-0.621 0.281-1.341 0.485-2.096 0.577 0.731-0.463 1.308-1.179 1.587-2.029-0.671 0.383-1.46 0.698-2.301 0.872-0.728-0.713-1.69-1.163-2.756-1.163-2.052 0-3.715 1.663-3.715 3.715 0 0.298 0.035 0.588 0.101 0.865-3.099-0.183-5.82-1.655-7.64-3.889-0.331 0.517-0.518 1.161-0.518 1.85 0 1.284 0.65 2.416 1.638 3.086-0.608-0.015-1.184-0.186-1.687-0.47 0.019 0.030 0.019 0.040 0.019 0.061 0.004 1.789 1.269 3.281 2.954 3.634-0.269 0.086-0.605 0.134-0.953 0.137-0.25-0.003-0.491-0.029-0.725-0.076 0.512 1.491 1.873 2.551 3.486 2.582-1.247 0.991-2.848 1.59-4.589 1.59-0.006 0-0.012 0-0.018-0-0.313-0.002-0.621-0.020-0.923-0.055 1.65 1.052 3.621 1.675 5.738 1.675 5.828 0 10.552-4.724 10.552-10.552 0-0.006 0-0.011 0-0.017 0-0.162 0-0.315-0.011-0.478 0.732-0.528 1.349-1.163 1.841-1.89z"></path>
</svg>
<svg id="icon-vk" width="32" height="32" viewBox="0 0 32 32" x="288" y="48">
<path opacity="0.8" fill="#fff" d="M15.971 0.010c8.827 0.001 15.983 7.157 15.983 15.985s-7.157 15.985-15.985 15.985-15.985-7.157-15.985-15.985c0-0.001 0-0.002 0-0.003 0-8.826 7.155-15.982 15.982-15.982 0.002 0 0.004 0 0.005 0zM22.051 18.603c0.003-0.050 0.004-0.109 0.004-0.168 0-0.795-0.294-1.522-0.779-2.077-0.532-0.558-1.236-0.954-2.027-1.103l-0.023-0.075c0.586-0.238 1.064-0.64 1.39-1.15 0.327-0.508 0.517-1.115 0.517-1.765 0-0.017-0-0.035-0-0.052 0-0.015 0.001-0.035 0.001-0.056 0-0.545-0.137-1.059-0.378-1.507-0.252-0.443-0.631-0.809-1.088-1.046-0.441-0.239-0.937-0.41-1.462-0.493-0.639-0.076-1.348-0.117-2.068-0.117-0.095 0-0.19 0.001-0.284 0.002l-4.876-0v13.845h5.54c0.068 0.002 0.148 0.003 0.229 0.003 0.762 0 1.502-0.094 2.209-0.271 0.597-0.174 1.17-0.475 1.665-0.87 0.429-0.338 0.783-0.77 1.032-1.265 0.257-0.525 0.401-1.117 0.401-1.743 0-0.032-0-0.065-0.001-0.097l0 0.005zM17.596 12.908c-0.004-0.25-0.068-0.484-0.176-0.691-0.107-0.223-0.295-0.402-0.526-0.498-0.247-0.108-0.526-0.171-0.82-0.176-0.315-0-0.782-0.010-1.401-0.010h-0.241v2.934h0.438c0.594 0 1.013-0.010 1.251-0.020 0.273-0.020 0.524-0.089 0.753-0.199 0.238-0.104 0.438-0.293 0.558-0.528 0.104-0.234 0.163-0.499 0.163-0.778 0-0.012-0-0.024-0-0.035l0 0.002zM18.468 18.542c0.002-0.030 0.003-0.064 0.003-0.099 0-0.337-0.098-0.651-0.267-0.916-0.191-0.249-0.458-0.441-0.766-0.54-0.261-0.087-0.549-0.136-0.848-0.136-0.011 0-0.022 0-0.034 0-0.367-0.010-0.863-0.010-1.482-0.010h-0.642v3.464h0.187c0.905 0 1.528-0.010 1.877-0.020 0.387-0.016 0.749-0.104 1.079-0.252 0.277-0.114 0.516-0.323 0.671-0.587 0.141-0.259 0.222-0.559 0.222-0.878 0-0.009-0-0.018-0-0.027z"></path>
</svg>
</svg>
