<?xml version="1.0" encoding="utf-8"?>
<!-- Generated by IcoMoon.io -->
<!DOCTYPE svg PUBLIC "-//W3C//DTD SVG 1.1//EN" "http://www.w3.org/Graphics/SVG/1.1/DTD/svg11.dtd">
<svg version="1.1" xmlns="http://www.w3.org/2000/svg" xmlns:xlink="http://www.w3.org/1999/xlink" width="752" height="80" viewBox="0 0 752 80">
<svg id="icon-caw" width="32" height="32" viewBox="0 0 32 32" x="0" y="0">
<path d="M26.41 15.668c0.161-0.247 0.255-0.542 0.255-0.859 0-0.234-0.051-0.457-0.139-0.647-0.549-1.29-2.427-1.851-3.208-2.033l-0.199-0.047c0.966-1.952 0.508-5.16 0.151-6.241l-2.065 0.176c-0.038 0.675-0.517 1.945-2.32 3.384l-1.089 0.792c-0.518-0.098-1.053-0.15-1.601-0.15-0.573 0.001-1.133 0.058-1.62 0.155l-1.071-0.736c-1.803-1.439-2.283-2.708-2.321-3.384l-2.065-0.169c-0.353 1.074-0.81 4.248 0.135 6.207l-0.068 0.014c-0.781 0.182-2.66 0.743-3.204 2.023-0.093 0.2-0.144 0.424-0.144 0.659 0 0.316 0.093 0.61 0.253 0.855 0.295 0.423 0.786 0.7 1.341 0.7 0.032 0 0.065-0.001 0.111-0.004 0.741-0.050 1.446-0.234 2.053-0.545-0.014 0.236-0.021 0.474-0.021 0.713 0 1.901 0.453 3.695 1.235 5.192-0.169 0.41-0.262 0.859-0.262 1.329 0 0.163 0.011 0.324 0.031 0.463 0.312 2.283 2.863 3.532 5.727 3.532s5.427-1.249 5.755-3.513c0.024-0.165 0.036-0.333 0.036-0.504 0-0.582-0.142-1.131-0.413-1.525 0.717-1.503 1.119-3.186 1.119-4.962 0-0.263-0.009-0.523-0.063-0.763 0.681 0.321 1.429 0.524 2.233 0.583 0.032 0.002 0.064 0.003 0.096 0.003 0.555 0 1.046-0.277 1.344-0.705zM9.482 13.447s-1.931 0.446-2.271 1.249 2.131-0.095 2.59-0.473c-0.169-0.215-0.283-0.48-0.319-0.769zM11.709 13.494c0.874-1.378 2.427-2.1 4.488-2.1 2.034 0 3.571 0.709 4.449 2.053 1.166 1.79 1.104 4.572-0.165 7.443l-0.255 0.581 0.275 0.556c0.159 0.299 0.248 0.641 0.248 1.003 0 0.103-0.007 0.204-0.020 0.292-0.233 1.634-2.462 2.377-4.42 2.377s-4.168-0.736-4.389-2.353c-0.013-0.095-0.019-0.192-0.019-0.291 0-0.293 0.058-0.573 0.159-0.814l0.215-0.54-0.248-0.527c-1.381-2.951-1.499-5.822-0.315-7.679zM25.281 14.697c0.338 0.797-2.131-0.095-2.591-0.469 0.171-0.218 0.286-0.483 0.323-0.78 0 0 1.932 0.446 2.27 1.249zM12.74 10.577s-2.428-1.675-2.523-3.39c-0.27 1.472-0.394 3.796 0.473 4.721 0.597-0.47 1.267-0.911 1.973-1.293zM19.65 10.509s2.428-1.668 2.523-3.384c0.27 1.466 0.394 3.789-0.476 4.714-0.596-0.462-1.266-0.903-1.969-1.29zM16.016-0.007c-8.839 0.001-16.005 7.167-16.005 16.007s7.166 16.007 16.007 16.007 16.007-7.166 16.007-16.007c0-8.84-7.166-16.007-16.007-16.007zM16.018 30.656c-8.094 0-14.656-6.562-14.656-14.656s6.562-14.656 14.656-14.656c8.094 0 14.656 6.562 14.656 14.656-0.008 8.092-6.566 14.649-14.657 14.656z"></path>
</svg>
<svg id="icon-checkbox-bold" width="32" height="32" viewBox="0 0 32 32" x="48" y="0">
<path fill="#fff" d="M6.633 0.016c-3.675 0.004-6.653 2.981-6.657 6.656v18.64c0 0.002 0 0.003 0 0.005 0 3.679 2.98 6.662 6.658 6.667h18.733c3.677-0.006 6.655-2.989 6.655-6.667 0-0.002 0-0.003 0-0.005v-18.64c-0.005-3.674-2.982-6.651-6.656-6.656h-18.733zM7.36 3.040h17.28c2.386 0 4.32 1.934 4.32 4.32v17.28c0 2.386-1.934 4.32-4.32 4.32h-17.28c-2.386 0-4.32-1.934-4.32-4.32v-17.28c0-2.386 1.934-4.32 4.32-4.32zM26.19 11.136l-12.312 12.304-2.824-2.816-4.912-4.912 2.826-2.832 4.912 4.912 9.488-9.488z"></path>
</svg>
<svg id="icon-checkbox-thin" width="32" height="32" viewBox="0 0 32 32" x="96" y="0">
<path fill="#fff" d="M6.633 0.016c-3.675 0.004-6.653 2.981-6.657 6.656v18.64c0 0.002 0 0.003 0 0.005 0 3.679 2.98 6.662 6.658 6.667h18.733c3.677-0.006 6.655-2.989 6.655-6.667 0-0.002 0-0.003 0-0.005v-18.64c-0.005-3.674-2.982-6.651-6.656-6.656h-18.733zM6.4 1.6h19.2c2.651 0 4.8 2.149 4.8 4.8v19.2c0 2.651-2.149 4.8-4.8 4.8h-19.2c-2.651 0-4.8-2.149-4.8-4.8v-19.2c0-2.651 2.149-4.8 4.8-4.8zM26.19 11.136l-12.312 12.304-2.824-2.816-4.912-4.912 2.826-2.832 4.912 4.912 9.488-9.488z"></path>
</svg>
<svg id="icon-fb" width="32" height="32" viewBox="0 0 32 32" x="144" y="0">
<path opacity="0.8" fill="#fff" d="M15.971 0.010c8.827 0.001 15.983 7.157 15.983 15.985s-7.157 15.985-15.985 15.985-15.985-7.157-15.985-15.985c0-0.001 0-0.002 0-0.003 0-8.826 7.155-15.982 15.982-15.982 0.002 0 0.004 0 0.005 0zM16.759 25.47v-9.465h2.795l0.29-3.148h-3.085v-1.895c0-0.907 0.087-1.284 1.393-1.284h1.797v-3.484h-2.844c-3.356 0-4.159 1.569-4.159 4.422v2.241h-1.924v3.148h1.93v9.465h3.808z"></path>
</svg>
<svg id="icon-heart" width="37" height="32" viewBox="0 0 37 32" x="192" y="0">
<path fill="#f7f8f8" d="M18.356 32.025s18.414-9.1 18.414-20.777c0-12.967-13.902-15.014-18.452-4.322zM18.442 32.025s-18.414-9.1-18.414-20.777c0-12.967 13.902-15.014 18.452-4.322z"></path>
</svg>
<svg id="icon-icecream" width="32" height="32" viewBox="0 0 32 32" x="240" y="0">
<path d="M20.020 6.511c1.048 1.041 1.696 2.484 1.696 4.078 0 0.005 0 0.011-0 0.015v9.915c0 0 0 0.001 0 0.001 0 0.301-0.244 0.546-0.546 0.546-0 0-0 0-0.001 0h-10.491c-0 0-0 0-0.001 0-0.301 0-0.546-0.244-0.546-0.546 0-0 0-0.001 0-0.001v-9.915c0.001-3.198 2.594-5.789 5.791-5.789 1.599 0 3.047 0.648 4.096 1.697zM20.627 19.971l-0.015-6.577c-0.352-0.141-0.659-0.373-0.897-0.674-0.128-0.224-0.362-0.381-0.638-0.4-0.092 0.074-0.163 0.172-0.189 0.246-0.127 0.264-0.239 0.536-0.361 0.913-0.125 0.384-0.285 0.753-0.463 1.076-0.18 0.424-0.6 0.721-1.090 0.721s-0.91-0.297-1.076-0.695c-0.191-0.349-0.352-0.718-0.505-1.199-0.095-0.28-0.206-0.553-0.316-0.777-0.043-0.112-0.114-0.21-0.21-0.286-0.272 0.020-0.506 0.177-0.64 0.411-0.32 0.458-0.851 0.757-1.451 0.757s-1.132-0.3-1.455-0.763c-0.034-0.041-0.066-0.074-0.097-0.108v7.355h9.398zM14.54 25.766v-4.16h2.769v4.16c0 0.765-0.62 1.385-1.385 1.385s-1.385-0.62-1.385-1.385zM15.998-0.007c0 0 0 0 0 0-8.84 0-16.007 7.166-16.007 16.007s7.166 16.007 16.007 16.007c8.84 0 16.007-7.166 16.007-16.007s-7.166-16.007-16.007-16.007zM15.998 30.656c-8.094 0-14.656-6.562-14.656-14.656s6.562-14.656 14.656-14.656c8.094 0 14.656 6.562 14.656 14.656-0.008 8.091-6.565 14.648-14.655 14.656z"></path>
</svg>
<svg id="icon-insta" width="32" height="32" viewBox="0 0 32 32" x="288" y="0">
<path opacity="0.8" fill="#fff" d="M15.971 0.010c8.827 0.001 15.983 7.157 15.983 15.985s-7.157 15.985-15.985 15.985-15.985-7.157-15.985-15.985c0-0.001 0-0.001 0-0.002 0-8.827 7.156-15.983 15.983-15.983 0.001 0 0.003 0 0.004 0zM22.36 24.064c0 0 0 0 0 0 0.982 0 1.778-0.796 1.778-1.778 0-0.002 0-0.004 0-0.005v-12.541c-0.002-0.979-0.796-1.773-1.776-1.773-0.001 0-0.001 0-0.002 0h-12.558c-0.001 0-0.001 0-0.002 0-0.98 0-1.774 0.793-1.776 1.773v12.541c0 0.002 0 0.003 0 0.005 0 0.982 0.796 1.778 1.778 1.778 0 0 0 0 0 0h12.56zM20.959 14.793c0.101 0.376 0.159 0.809 0.159 1.254 0 2.769-2.245 5.013-5.013 5.013s-5.013-2.245-5.013-5.013c0-0.446 0.058-0.878 0.167-1.289l-1.414 0.035v6.907c0 0 0 0.001 0 0.001 0 0.343 0.278 0.62 0.62 0.62 0.001 0 0.001 0 0.002 0h11.273c0.001 0 0.002 0 0.003 0 0.343 0 0.62-0.278 0.62-0.62 0-0 0-0.001 0-0.001v-6.907h-1.406zM16.109 13.152c0.065-0.005 0.141-0.008 0.217-0.008 1.602 0 2.901 1.299 2.901 2.902s-1.299 2.901-2.901 2.901c-0.076 0-0.152-0.003-0.227-0.009-1.588 0.001-2.883-1.295-2.883-2.893s1.295-2.893 2.893-2.893zM19.878 9.78h1.9c0.001 0 0.002 0 0.003 0 0.342 0 0.619 0.277 0.619 0.619 0 0.001 0 0.001 0 0.002v1.895c0 0.001 0 0.001 0 0.002 0 0.342-0.277 0.619-0.619 0.619-0.001 0-0.002 0-0.003 0h-1.9c-0.001 0-0.001 0-0.002 0-0.343 0-0.62-0.278-0.62-0.62 0-0 0-0.001 0-0.001v-1.895c0-0 0-0.001 0-0.001 0-0.343 0.278-0.62 0.62-0.62 0.001 0 0.001 0 0.002 0z"></path>
</svg>
<svg id="icon-leaf" width="32" height="32" viewBox="0 0 32 32" x="336" y="0">
<path d="M15.955 26.887c0 0 15.021-6.875 0-22.119-15.021 15.244-48.248-990.71 0 22.119zM21.019 15.223c0.16 0.672 0.244 1.374 0.244 2.095 0 0.099-0.002 0.198-0.004 0.283l-4.656 2.978 0.014-2.485 4.414-2.81zM10.637 17.442c-0-0.022-0-0.044-0-0.067 0-0.766 0.094-1.51 0.257-2.159l4.358 2.803v2.445l-4.615-3.026zM11.327 13.764c0.274-0.75 0.607-1.472 0.956-2.086l2.969 2.283v2.452zM13.047 10.431c0.676-1.024 1.422-1.998 2.205-2.886v4.755zM16.603 12.488l-0.025-5.040c0.88 0.996 1.687 2.059 2.476 3.284l-2.451 1.756zM19.701 11.817c0.351 0.642 0.655 1.312 0.941 2.109l-4.040 2.6 0.014-2.485zM20.947 19.45c-0.761 2.286-2.299 4.218-4.344 5.506l0.014-2.81 4.352-2.769zM15.255 24.915c-1.418-0.952-3.59-2.837-4.336-5.633l4.334 2.789v2.843zM15.998-0.007c-0.001 0-0.001 0-0.002 0-8.84 0-16.007 7.166-16.007 16.007s7.166 16.007 16.007 16.007c8.84 0 16.007-7.166 16.007-16.007s-7.166-16.007-16.007-16.007zM15.996 30.656c-8.094 0-14.656-6.562-14.656-14.656s6.562-14.656 14.656-14.656c8.094 0 14.656 6.562 14.656 14.656-0.008 8.090-6.564 14.646-14.653 14.656z"></path>
</svg>
<svg id="icon-login" width="34" height="32" viewBox="0 0 34 32" x="384" y="0">
<path fill="#fff" d="M5.053 6.683v-1.617c0-2.791 2.262-5.053 5.053-5.053h18.626c2.791 0 5.053 2.262 5.053 5.053v21.858c0 2.791-2.262 5.053-5.053 5.053h-18.626c-2.79 0-5.053-2.262-5.053-5.053v-1.661h3.368v3.368h21.895v-25.263h-21.895v3.315h-3.368zM0 20.234h10.154v4.62l11.835-8.926-11.835-8.926v4.62h-10.154v8.613z"></path>
</svg>
<svg id="icon-login-black" width="34" height="32" viewBox="0 0 34 32" x="432" y="0">
<path d="M5.053 6.683v-1.617c0-2.791 2.262-5.053 5.053-5.053h18.626c2.791 0 5.053 2.262 5.053 5.053v21.856c0 2.791-2.262 5.053-5.053 5.053h-18.626c-2.79 0-5.053-2.262-5.053-5.053v-1.659h3.368v3.368h21.895v-25.263h-21.895v3.316h-3.368zM0 20.234h10.154v4.62l11.835-8.926-11.835-8.926v4.62h-10.154v8.611z"></path>
</svg>
<svg id="icon-magnifiy-black" width="32" height="32" viewBox="0 0 32 32" x="480" y="0">
<path d="M22.888 20.128h-1.448l-0.506-0.5c1.788-2.073 2.876-4.792 2.876-7.766 0-6.585-5.338-11.923-11.923-11.923s-11.923 5.338-11.923 11.923c0 6.585 5.338 11.923 11.923 11.923 2.968 0 5.682-1.084 7.769-2.878l0.489 0.516v1.448l9.152 9.128 2.729-2.727zM11.898 20.128c-4.539-0.009-8.215-3.69-8.215-8.23 0-4.545 3.685-8.23 8.23-8.23s8.23 3.685 8.23 8.23c0 0.001 0 0.001 0 0.002-0.003 4.545-3.688 8.228-8.234 8.228-0.004 0-0.008 0-0.012 0z"></path>
</svg>
<svg id="icon-magnify" width="32" height="32" viewBox="0 0 32 32" x="528" y="0">
<path fill="#fff" d="M22.888 20.128h-1.448l-0.506-0.5c1.782-2.070 2.867-4.784 2.867-7.751 0-6.579-5.333-11.912-11.912-11.912s-11.912 5.333-11.912 11.912c0 6.579 5.333 11.912 11.912 11.912 2.967 0 5.681-1.085 7.766-2.88l0.489 0.516v1.448l9.152 9.128 2.729-2.727zM11.898 20.128c-4.537-0.010-8.211-3.69-8.211-8.228 0-4.544 3.684-8.228 8.228-8.228s8.228 3.684 8.228 8.228c-0.003 4.545-3.688 8.228-8.234 8.228-0.004 0-0.008 0-0.012 0z"></path>
</svg>
<svg id="icon-radio-bold" width="32" height="32" viewBox="0 0 32 32" x="576" y="0">
<path fill="#f8f7f4" d="M15.993 0c-8.828 0.002-15.984 7.159-15.984 15.987 0 0.002 0 0.003 0 0.005 0.005 8.824 7.159 15.976 15.984 15.976 8.828 0 15.984-7.156 15.984-15.984s-7.156-15.984-15.984-15.984zM15.994 3.382c6.965 0 12.61 5.646 12.61 12.61s-5.646 12.61-12.61 12.61c-6.964 0-12.61-5.646-12.61-12.61 0-0.001 0-0.002 0-0.003 0-6.963 5.644-12.607 12.607-12.607 0.002 0 0.003 0 0.005 0zM15.994 7.475c4.703 0.001 8.516 3.814 8.516 8.518s-3.813 8.518-8.518 8.518-8.518-3.813-8.518-8.518c0-0.001 0-0.002 0-0.003 0-4.702 3.812-8.514 8.514-8.514 0.003 0 0.006 0 0.008 0z"></path>
</svg>
<svg id="icon-radio-thin" width="32" height="32" viewBox="0 0 32 32" x="624" y="0">
<path fill="#f8f7f4" d="M15.993 0c-8.828 0.002-15.984 7.159-15.984 15.987 0 0.002 0 0.003 0 0.005 0.005 8.824 7.159 15.976 15.984 15.976 8.828 0 15.984-7.156 15.984-15.984s-7.156-15.984-15.984-15.984zM15.994 1.975c0.002 0 0.004 0 0.006 0 7.741 0 14.017 6.276 14.017 14.017s-6.276 14.017-14.017 14.017c-7.741 0-14.017-6.276-14.017-14.017 0-0.001 0-0.002 0-0.003 0-7.738 6.272-14.012 14.010-14.014zM15.994 7.475c4.703 0.001 8.516 3.814 8.516 8.518s-3.813 8.518-8.518 8.518-8.518-3.813-8.518-8.518c0-0.001 0-0.002 0-0.003 0-4.702 3.812-8.514 8.514-8.514 0.003 0 0.006 0 0.008 0z"></path>
</svg>
<svg id="icon-termometer" width="32" height="32" viewBox="0 0 32 32" x="672" y="0">
<path d="M15.908 26.016c0 0 0.001 0 0.001 0 2.526 0 4.574-2.047 4.575-4.585-0.059-1.161-0.503-2.221-1.2-3.047v-10.070c0-1.865-1.512-3.377-3.377-3.377s-3.377 1.512-3.377 3.377l0.007 10.014c-0.707 0.852-1.159 1.925-1.238 3.117 0.017 2.527 2.071 4.571 4.602 4.571 0.002 0 0.004 0 0.006 0zM15.908 24.665c1.783-0 3.23-1.44 3.241-3.226-0.026-0.999-0.477-1.892-1.185-2.508v-10.617c0-1.119-0.907-2.026-2.026-2.026s-2.026 0.907-2.026 2.026l-0.005 10.581c-0.725 0.618-1.198 1.524-1.241 2.55 0.011 1.781 1.459 3.221 3.242 3.221 0 0 0 0 0 0zM17.736 21.349c-0-0.79-0.492-1.466-1.199-1.742v-11.394c0-0.354-0.287-0.642-0.642-0.642s-0.642 0.287-0.642 0.642l-0.013 11.378c-0.729 0.256-1.252 0.951-1.252 1.768 0 1.035 0.839 1.874 1.874 1.874s1.874-0.839 1.874-1.874c0-0.003 0-0.006-0-0.009zM21.296 10.259c-0.373 0-0.675 0.302-0.675 0.675s0.302 0.675 0.675 0.675h2.702c0.373 0 0.675-0.302 0.675-0.675s-0.302-0.675-0.675-0.675h-2.702zM21.296 7.558c-0.373 0-0.675 0.302-0.675 0.675s0.302 0.675 0.675 0.675h2.702c0.373 0 0.675-0.302 0.675-0.675s-0.302-0.675-0.675-0.675h-2.702zM21.296 12.961c-0.373 0-0.675 0.302-0.675 0.675s0.302 0.675 0.675 0.675h2.702c0.373 0 0.675-0.302 0.675-0.675s-0.302-0.675-0.675-0.675h-2.702zM21.296 15.662c-0.373 0-0.675 0.302-0.675 0.675s0.302 0.675 0.675 0.675h2.702c0.373 0 0.675-0.302 0.675-0.675s-0.302-0.675-0.675-0.675h-2.702zM16.016-0.007c0 0 0 0 0 0-8.84 0-16.007 7.166-16.007 16.007s7.166 16.007 16.007 16.007c8.84 0 16.007-7.166 16.007-16.007s-7.166-16.007-16.007-16.007zM16.016 30.656c-8.094 0-14.656-6.562-14.656-14.656s6.562-14.656 14.656-14.656c8.094 0 14.656 6.562 14.656 14.656-0.008 8.091-6.565 14.648-14.655 14.656z"></path>
</svg>
<svg id="icon-tw" width="32" height="32" viewBox="0 0 32 32" x="720" y="0">
<path opacity="0.8" fill="#fff" d="M15.977 0.010c8.83 0.001 15.988 7.16 15.988 15.99s-7.159 15.99-15.99 15.99-15.99-7.159-15.99-15.99c0-0.001 0-0.001 0-0.002 0-8.83 7.158-15.988 15.988-15.988 0.001 0 0.003 0 0.004 0zM25.289 11.027c-0.621 0.281-1.341 0.485-2.096 0.577 0.731-0.463 1.308-1.179 1.587-2.029-0.671 0.383-1.46 0.698-2.301 0.872-0.728-0.713-1.69-1.163-2.756-1.163-2.052 0-3.715 1.663-3.715 3.715 0 0.298 0.035 0.588 0.101 0.865-3.099-0.183-5.82-1.655-7.64-3.889-0.331 0.517-0.518 1.161-0.518 1.85 0 1.284 0.65 2.416 1.638 3.086-0.608-0.015-1.184-0.186-1.687-0.47 0.019 0.030 0.019 0.040 0.019 0.061 0.004 1.789 1.269 3.281 2.954 3.634-0.269 0.086-0.605 0.134-0.953 0.137-0.25-0.003-0.491-0.029-0.725-0.076 0.512 1.491 1.873 2.551 3.486 2.582-1.247 0.991-2.848 1.59-4.589 1.59-0.006 0-0.012 0-0.018-0-0.313-0.002-0.621-0.020-0.923-0.055 1.65 1.052 3.621 1.675 5.738 1.675 5.828 0 10.552-4.724 10.552-10.552 0-0.006 0-0.011 0-0.017 0-0.162 0-0.315-0.011-0.478 0.732-0.528 1.349-1.163 1.841-1.89z"></path>
</svg>
<svg id="icon-vk" width="32" height="32" viewBox="0 0 32 32" x="0" y="48">
<path opacity="0.8" fill="#fff" d="M15.971 0.010c8.827 0.001 15.983 7.157 15.983 15.985s-7.157 15.985-15.985 15.985-15.985-7.157-15.985-15.985c0-0.001 0-0.002 0-0.003 0-8.826 7.155-15.982 15.982-15.982 0.002 0 0.004 0 0.005 0zM22.051 18.603c0.003-0.050 0.004-0.109 0.004-0.168 0-0.795-0.294-1.522-0.779-2.077-0.532-0.558-1.236-0.954-2.027-1.103l-0.023-0.075c0.586-0.238 1.064-0.64 1.39-1.15 0.327-0.508 0.517-1.115 0.517-1.765 0-0.017-0-0.035-0-0.052 0-0.015 0.001-0.035 0.001-0.056 0-0.545-0.137-1.059-0.378-1.507-0.252-0.443-0.631-0.809-1.088-1.046-0.441-0.239-0.937-0.41-1.462-0.493-0.639-0.076-1.348-0.117-2.068-0.117-0.095 0-0.19 0.001-0.284 0.002l-4.876-0v13.845h5.54c0.068 0.002 0.148 0.003 0.229 0.003 0.762 0 1.502-0.094 2.209-0.271 0.597-0.174 1.17-0.475 1.665-0.87 0.429-0.338 0.783-0.77 1.032-1.265 0.257-0.525 0.401-1.117 0.401-1.743 0-0.032-0-0.065-0.001-0.097l0 0.005zM17.596 12.908c-0.004-0.25-0.068-0.484-0.176-0.691-0.107-0.223-0.295-0.402-0.526-0.498-0.247-0.108-0.526-0.171-0.82-0.176-0.315-0-0.782-0.010-1.401-0.010h-0.241v2.934h0.438c0.594 0 1.013-0.010 1.251-0.020 0.273-0.020 0.524-0.089 0.753-0.199 0.238-0.104 0.438-0.293 0.558-0.528 0.104-0.234 0.163-0.499 0.163-0.778 0-0.012-0-0.024-0-0.035l0 0.002zM18.468 18.542c0.002-0.030 0.003-0.064 0.003-0.099 0-0.337-0.098-0.651-0.267-0.916-0.191-0.249-0.458-0.441-0.766-0.54-0.261-0.087-0.549-0.136-0.848-0.136-0.011 0-0.022 0-0.034 0-0.367-0.010-0.863-0.010-1.482-0.010h-0.642v3.464h0.187c0.905 0 1.528-0.010 1.877-0.020 0.387-0.016 0.749-0.104 1.079-0.252 0.277-0.114 0.516-0.323 0.671-0.587 0.141-0.259 0.222-0.559 0.222-0.878 0-0.009-0-0.018-0-0.027z"></path>
</svg>
</svg>
