<?xml version="1.0" encoding="utf-8"?>
<!-- Generated by IcoMoon.io -->
<!DOCTYPE svg PUBLIC "-//W3C//DTD SVG 1.1//EN" "http://www.w3.org/Graphics/SVG/1.1/DTD/svg11.dtd">
<svg version="1.1" xmlns="http://www.w3.org/2000/svg" xmlns:xlink="http://www.w3.org/1999/xlink" width="832" height="344" viewBox="0 0 832 344">
<svg id="icon-cart-full" width="20" height="20" viewBox="0 0 20 20" x="0" y="0">
<path fill="#e84d37" d="M4.286 3.661h14.4l-1.305 9.762-12.029-0.12z"></path>
<path fill="#343434" d="M19.6 4.694c0.247-1.256-0.391-2.333-1.438-2.333h-13.301c0.481-0.044 0.857-0.449 0.857-0.941 0-0.522-0.423-0.945-0.945-0.945-0.004 0-0.008 0-0.011 0h-3.809c-0.526 0-0.953 0.426-0.953 0.953s0.426 0.953 0.953 0.953l2.029-0.004c-0.001 0.025-0.001 0.050-0.001 0.076 0 0.332 0.046 0.653 0.124 0.933l1.402 9.809c0.17 0.849 0.897 1.496 1.788 1.545h10.367c0.886-0.049 1.613-0.696 1.786-1.557l1.152-8.488zM6.409 12.807l-1.248-8.571h12.571l-0.029 0.191-1.124 8.369c-0.004 0.004-0.008 0.008-0.009 0.013h-10.162zM6.905 15.671c0.984 0.003 1.781 0.801 1.781 1.786 0 0.986-0.799 1.786-1.786 1.786s-1.786-0.799-1.786-1.786c0 0 0 0 0 0 0-0.986 0.799-1.786 1.786-1.786 0.002 0 0.003 0 0.005 0zM15.476 15.671c0.984 0.003 1.781 0.801 1.781 1.786 0 0.986-0.799 1.786-1.786 1.786s-1.786-0.799-1.786-1.786c0 0 0 0 0 0 0-0.986 0.799-1.786 1.786-1.786 0.002 0 0.003 0 0.005 0z"></path>
</svg>
<svg id="icon-cart" width="21" height="20" viewBox="0 0 21 20" x="36" y="0">
<path fill="#fff" d="M20.873 4.492c0.264-1.338-0.416-2.485-1.532-2.485l-14.165-0c0.512-0.047 0.913-0.478 0.913-1.002 0-0.556-0.45-1.006-1.006-1.006-0.004 0-0.008 0-0.012 0h-4.057c-0.56 0-1.014 0.454-1.014 1.014s0.454 1.014 1.014 1.014l2.16-0.004c-0.001 0.027-0.001 0.053-0.001 0.080 0 0.354 0.048 0.696 0.133 0.994l1.493 10.447c0.181 0.904 0.955 1.593 1.905 1.645l11.040-0c0.944-0.052 1.718-0.741 1.902-1.658l1.227-9.039zM6.826 13.132l-1.329-9.128h13.388l-0.030 0.203-1.197 8.913c-0.004 0.004-0.008 0.008-0.010 0.014l-10.822 0zM7.353 16.183c1.047 0.003 1.895 0.853 1.895 1.901 0 1.050-0.851 1.901-1.901 1.901s-1.901-0.851-1.901-1.901c0 0 0 0 0-0 0-1.050 0.851-1.901 1.901-1.901 0.002 0 0.004 0 0.006 0zM16.482 16.183c1.047 0.003 1.895 0.853 1.895 1.901 0 1.050-0.851 1.901-1.901 1.901s-1.901-0.851-1.901-1.901c0 0 0 0 0-0 0-1.050 0.851-1.901 1.901-1.901 0.002 0 0.004 0 0.006 0z"></path>
</svg>
<svg id="icon-heart" width="17" height="17" viewBox="0 0 17 17" x="0" y="36">
<path fill="#fff" d="M8.522 4.433c0 0-1.063-2.264-3.453-2.264-2.612 0-3.984 2.214-3.984 4.427 0 3.675 7.438 8.234 7.438 8.234s7.393-4.516 7.393-8.234c0-2.258-1.416-4.427-3.94-4.427s-3.453 2.264-3.453 2.264z"></path>
</svg>
<svg id="icon-search" width="17" height="17" viewBox="0 0 17 17" x="0" y="69">
<path fill="#fff" d="M12.159 10.693h-0.769l-0.269-0.266c0.947-1.1 1.523-2.541 1.523-4.118 0-3.495-2.833-6.328-6.328-6.328s-6.328 2.833-6.328 6.328c0 3.495 2.833 6.328 6.328 6.328 1.576 0 3.018-0.576 4.126-1.53l0.26 0.274v0.769l4.862 4.849 1.45-1.449zM6.321 10.693c-2.41-0.005-4.362-1.96-4.362-4.371 0-2.414 1.957-4.371 4.371-4.371s4.371 1.957 4.371 4.371c-0.002 2.415-1.959 4.371-4.374 4.371-0.002 0-0.004 0-0.006 0z"></path>
</svg>
<svg id="icon-search2" width="17" height="17" viewBox="0 0 17 17" x="33" y="69">
<path fill="#323232" d="M12.159 10.693h-0.769l-0.269-0.266c0.947-1.1 1.523-2.541 1.523-4.118 0-3.495-2.833-6.328-6.328-6.328s-6.328 2.833-6.328 6.328c0 3.495 2.833 6.328 6.328 6.328 1.576 0 3.018-0.576 4.126-1.53l0.26 0.274v0.769l4.862 4.849 1.45-1.449zM6.321 10.693c-2.41-0.005-4.362-1.96-4.362-4.371 0-2.414 1.957-4.371 4.371-4.371s4.371 1.957 4.371 4.371c-0.002 2.415-1.959 4.371-4.374 4.371-0.002 0-0.004 0-0.006 0z"></path>
</svg>
<svg id="icon-login" width="20" height="19" viewBox="0 0 20 19" x="0" y="102">
<path fill="#fff" d="M3 3.968v-0.96c0-1.657 1.343-3 3-3h11.059c1.657 0 3 1.343 3 3v12.978c0 1.657-1.343 3-3 3h-11.059c-1.657 0-3-1.343-3-3v-0.986h2v2h13v-15h-13v1.968h-2zM0 12.014h6.029v2.743l7.027-5.3-7.027-5.3v2.743h-6.029v5.114z"></path>
</svg>
<svg id="icon-login2" width="20" height="19" viewBox="0 0 20 19" x="35" y="102">
<path fill="#323232" d="M3 3.968v-0.96c0-1.657 1.343-3 3-3h11.059c1.657 0 3 1.343 3 3v12.978c0 1.657-1.343 3-3 3h-11.059c-1.657 0-3-1.343-3-3v-0.986h2v2h13v-15h-13v1.968h-2zM0 12.014h6.029v2.743l7.027-5.3-7.027-5.3v2.743h-6.029v5.114z"></path>
</svg>
<svg id="icon-icecream" width="48" height="48" viewBox="0 0 48 48" x="0" y="137">
<path fill="#323232" d="M24 0.784c-12.833 0-23.216 10.384-23.216 23.216s10.384 23.216 23.216 23.216c12.833 0 23.216-10.384 23.216-23.216s-10.384-23.216-23.216-23.216zM24 45.257c-11.755 0-21.257-9.502-21.257-21.257s9.502-21.257 21.257-21.257c11.755 0 21.257 9.502 21.257 21.257s-9.502 21.257-21.257 21.257zM23.902 7.739c-2.253 0-4.31 0.882-5.976 2.449-1.567 1.567-2.449 3.722-2.449 5.976v14.4c0 0.392 0.392 0.784 0.784 0.784h15.184c0.392 0 0.784-0.392 0.784-0.784v-14.4c0-2.253-0.882-4.31-2.449-5.976-1.567-1.567-3.624-2.449-5.878-2.449zM30.661 29.78h-13.616v-10.678c0 0 0.098 0.098 0.098 0.196 0.392 0.49 0.98 1.078 2.155 1.078 1.078 0 1.665-0.686 2.155-1.078 0.392-0.392 0.588-0.588 0.882-0.588 0 0 0.098 0.098 0.294 0.392s0.294 0.784 0.49 1.176c0.196 0.588 0.392 1.176 0.686 1.567 0.392 0.686 0.98 1.078 1.567 1.078s1.176-0.392 1.567-1.078c0.294-0.49 0.49-1.078 0.686-1.567 0.196-0.392 0.294-0.882 0.49-1.176s0.294-0.392 0.294-0.392c0.392 0 0.588 0.196 0.882 0.588 0.294 0.294 0.686 0.784 1.273 0.98v9.502zM21.845 38.204c0 1.078 0.882 1.959 1.959 1.959s1.959-0.882 1.959-1.959v-6.073h-4.016v6.073z"></path>
</svg>
<svg id="icon-leaf" width="48" height="48" viewBox="0 0 48 48" x="64" y="137">
<path fill="#323232" d="M24 0.784c-12.833 0-23.216 10.384-23.216 23.216s10.384 23.216 23.216 23.216c12.833 0 23.216-10.384 23.216-23.216s-10.384-23.216-23.216-23.216zM24 45.257c-11.755 0-21.257-9.502-21.257-21.257s9.502-21.257 21.257-21.257c11.755 0 21.257 9.502 21.257 21.257s-9.502 21.257-21.257 21.257zM23.902 39.771c0 0 21.747-9.992 0-32.131-21.747 22.139 0 32.131 0 32.131zM22.922 36.931c-2.057-1.371-5.192-4.114-6.269-8.131l6.269 4.016v4.114zM22.922 30.465l-6.661-4.408c0-1.078 0.098-2.155 0.392-3.233l6.367 4.114v3.527zM22.922 24.588l-5.78-3.722c0.392-1.078 0.882-2.057 1.469-3.135l4.31 3.331v3.527zM22.922 18.612l-3.331-2.547c0.882-1.371 2.057-2.841 3.331-4.31v6.857zM24.882 11.657c1.371 1.567 2.547 3.233 3.527 4.702l-3.527 2.547v-7.249zM24.882 21.159l4.506-3.135c0.49 0.98 0.98 1.959 1.273 2.939l-5.878 3.722 0.098-3.527zM24.882 27.037l6.367-4.114c0.294 1.176 0.392 2.253 0.294 3.331l-6.759 4.31 0.098-3.527zM24.882 32.914l6.269-4.016c-1.176 4.016-4.31 6.759-6.367 8.131l0.098-4.114z"></path>
</svg>
<svg id="icon-cow" width="47" height="48" viewBox="0 0 47 48" x="128" y="137">
<path fill="#323232" d="M23.706 0.784c-12.833 0-23.216 10.384-23.216 23.216s10.384 23.216 23.216 23.216c12.833 0 23.216-10.384 23.216-23.216s-10.384-23.216-23.216-23.216zM23.706 45.257c-11.755 0-21.257-9.502-21.257-21.257s9.502-21.257 21.257-21.257c11.755 0 21.257 9.502 21.257 21.257s-9.6 21.257-21.257 21.257zM38.89 21.355c-0.784-1.861-3.527-2.645-4.604-2.939l-0.294-0.098c1.371-2.841 0.784-7.445 0.196-9.012l-3.037 0.294c-0.098 0.98-0.784 2.841-3.331 4.898l-1.665 1.176c-0.686-0.098-1.469-0.196-2.253-0.196-0.882 0-1.567 0.098-2.351 0.196l-1.567-1.078c-2.645-2.057-3.331-3.918-3.331-4.898l-2.939-0.294c-0.49 1.567-1.176 6.171 0.196 9.012h-0.098c-1.176 0.294-3.82 1.078-4.702 2.939-0.294 0.686-0.196 1.567 0.196 2.155 0.294 0.392 0.882 0.98 2.057 0.98 0.784 0 1.959-0.294 3.037-0.784-0.196 2.547 0.294 5.486 1.763 8.522-0.294 0.784-0.49 1.665-0.294 2.547 0.49 3.331 4.114 5.094 8.327 5.094s7.837-1.861 8.327-5.094c0.196-1.078 0-2.057-0.49-3.037 1.273-2.939 1.763-5.682 1.567-8.131 1.078 0.49 2.351 0.784 3.233 0.784 1.176 0 1.861-0.686 2.057-0.98 0.294-0.49 0.392-1.371 0-2.057zM10.873 22.139c0.49-1.176 3.331-1.763 3.331-1.763 0.098 0.588 0.098 0.686 0.49 1.176-0.686 0.392-4.31 1.665-3.82 0.588zM15.967 18.024c-1.273-1.371-1.078-4.702-0.686-6.857 0.098 2.449 3.624 4.898 3.624 4.898-1.273 0.588-2.351 1.665-2.939 1.959zM30.171 31.053l-0.392 0.882 0.392 0.784c0.294 0.588 0.392 1.273 0.294 1.861-0.294 2.351-3.527 3.429-6.367 3.429s-6.073-1.078-6.367-3.429c-0.098-0.49 0-1.078 0.196-1.567l0.294-0.784-0.392-0.784c-1.959-4.31-2.155-8.424-0.49-11.167 1.273-1.959 3.527-3.037 6.465-3.037s5.192 1.078 6.465 2.939c1.861 2.743 1.763 6.759-0.098 10.873zM31.935 17.927c-0.588-0.294-1.665-1.371-2.939-1.959 0 0 3.527-2.449 3.624-4.898 0.392 2.155 0.588 5.584-0.686 6.857zM33.404 21.453c0.294-0.49 0.392-0.588 0.49-1.176 0 0 2.841 0.686 3.331 1.763 0.392 1.176-3.233-0.098-3.82-0.588z"></path>
</svg>
<svg id="icon-term" width="47" height="48" viewBox="0 0 47 48" x="192" y="137">
<path fill="#323232" d="M23.706 0.784c-12.833 0-23.216 10.384-23.216 23.216s10.384 23.216 23.216 23.216c12.833 0 23.216-10.384 23.216-23.216s-10.384-23.216-23.216-23.216zM23.706 45.257c-11.755 0-21.257-9.502-21.257-21.257s9.502-21.257 21.257-21.257c11.755 0 21.257 9.502 21.257 21.257s-9.6 21.257-21.257 21.257zM28.408 12.833c0-2.645-2.155-4.8-4.898-4.8s-4.898 2.155-4.898 4.8v14.596c-0.98 1.273-1.763 2.939-1.763 4.506 0 3.624 3.037 6.661 6.661 6.661s6.661-2.939 6.661-6.661c0-1.567-0.784-3.135-1.763-4.408v-14.694zM23.51 36.539c-2.547 0-4.702-2.057-4.702-4.702 0-1.469 0.784-2.841 1.763-3.722v-15.282c0-1.567 1.371-2.841 2.939-2.841s2.939 1.273 2.939 2.841v15.38c0.98 0.882 1.763 2.155 1.763 3.624 0 2.645-2.057 4.702-4.702 4.702zM35.265 19.592h-3.918c-0.588 0-0.98 0.392-0.98 0.98s0.392 0.98 0.98 0.98h3.918c0.588 0 0.98-0.392 0.98-0.98s-0.392-0.98-0.98-0.98zM24.49 29.192v-16.457c0-0.49-0.392-0.882-0.882-0.882s-0.882 0.392-0.882 0.882v16.457c-1.078 0.392-1.861 1.371-1.861 2.547 0 1.469 1.176 2.743 2.743 2.743 1.469 0 2.743-1.176 2.743-2.743-0.196-1.176-0.882-2.155-1.861-2.547zM35.265 23.51h-3.918c-0.588 0-0.98 0.392-0.98 0.98s0.392 0.98 0.98 0.98h3.918c0.588 0 0.98-0.392 0.98-0.98s-0.392-0.98-0.98-0.98zM35.265 11.755h-3.918c-0.588 0-0.98 0.392-0.98 0.98s0.392 0.98 0.98 0.98h3.918c0.588 0 0.98-0.392 0.98-0.98s-0.392-0.98-0.98-0.98zM35.265 15.673h-3.918c-0.588 0-0.98 0.392-0.98 0.98s0.392 0.98 0.98 0.98h3.918c0.588 0 0.98-0.392 0.98-0.98s-0.392-0.98-0.98-0.98z"></path>
</svg>
<svg id="icon-vk" width="32" height="32" viewBox="0 0 32 32" x="0" y="201">
<path fill="#fff" d="M15.971 0.010c8.827 0.001 15.983 7.157 15.983 15.985s-7.157 15.985-15.985 15.985-15.985-7.157-15.985-15.985c0-0.001 0-0.002 0-0.003 0-8.826 7.155-15.982 15.982-15.982 0.002 0 0.004 0 0.005 0zM22.051 18.603c0.003-0.050 0.004-0.109 0.004-0.168 0-0.795-0.294-1.522-0.779-2.077-0.532-0.558-1.236-0.954-2.027-1.103l-0.023-0.075c0.586-0.238 1.064-0.64 1.39-1.15 0.327-0.508 0.517-1.115 0.517-1.765 0-0.017-0-0.035-0-0.052 0-0.015 0.001-0.035 0.001-0.056 0-0.545-0.137-1.059-0.378-1.507-0.252-0.443-0.631-0.809-1.088-1.046-0.441-0.239-0.937-0.41-1.462-0.493-0.639-0.076-1.348-0.117-2.068-0.117-0.095 0-0.19 0.001-0.284 0.002l-4.876-0v13.845h5.54c0.068 0.002 0.148 0.003 0.229 0.003 0.762 0 1.502-0.094 2.209-0.271 0.597-0.174 1.17-0.475 1.665-0.87 0.429-0.338 0.783-0.77 1.032-1.265 0.257-0.525 0.401-1.117 0.401-1.743 0-0.032-0-0.065-0.001-0.097l0 0.005zM17.596 12.908c-0.004-0.25-0.068-0.484-0.176-0.691-0.107-0.223-0.295-0.402-0.526-0.498-0.247-0.108-0.526-0.171-0.82-0.176-0.315-0-0.782-0.010-1.401-0.010h-0.241v2.934h0.438c0.594 0 1.013-0.010 1.251-0.020 0.273-0.020 0.524-0.089 0.753-0.199 0.238-0.104 0.438-0.293 0.558-0.528 0.104-0.234 0.163-0.499 0.163-0.778 0-0.012-0-0.024-0-0.035l0 0.002zM18.468 18.542c0.002-0.030 0.003-0.064 0.003-0.099 0-0.337-0.098-0.651-0.267-0.916-0.191-0.249-0.458-0.441-0.766-0.54-0.261-0.087-0.549-0.136-0.848-0.136-0.011 0-0.022 0-0.034 0-0.367-0.010-0.863-0.010-1.482-0.010h-0.642v3.464h0.187c0.905 0 1.528-0.010 1.877-0.020 0.387-0.016 0.749-0.104 1.079-0.252 0.277-0.114 0.516-0.323 0.671-0.587 0.141-0.259 0.222-0.559 0.222-0.878 0-0.009-0-0.018-0-0.027z"></path>
</svg>
<svg id="icon-inst" width="32" height="32" viewBox="0 0 32 32" x="48" y="201">
<path fill="#fff" d="M15.971 0.010c8.827 0.001 15.983 7.157 15.983 15.985s-7.157 15.985-15.985 15.985-15.985-7.157-15.985-15.985c0-0.001 0-0.001 0-0.002 0-8.827 7.156-15.983 15.983-15.983 0.001 0 0.003 0 0.004 0zM22.36 24.064c0 0 0 0 0 0 0.982 0 1.778-0.796 1.778-1.778 0-0.002 0-0.004 0-0.005v-12.541c-0.002-0.979-0.796-1.773-1.776-1.773-0.001 0-0.001 0-0.002 0h-12.558c-0.001 0-0.001 0-0.002 0-0.98 0-1.774 0.793-1.776 1.773v12.541c0 0.002 0 0.003 0 0.005 0 0.982 0.796 1.778 1.778 1.778 0 0 0 0 0 0h12.56zM20.959 14.793c0.101 0.376 0.159 0.809 0.159 1.254 0 2.769-2.245 5.013-5.013 5.013s-5.013-2.245-5.013-5.013c0-0.446 0.058-0.878 0.167-1.289l-1.414 0.035v6.907c0 0 0 0.001 0 0.001 0 0.343 0.278 0.62 0.62 0.62 0.001 0 0.001 0 0.002 0h11.273c0.001 0 0.002 0 0.003 0 0.343 0 0.62-0.278 0.62-0.62 0-0 0-0.001 0-0.001v-6.907h-1.406zM16.109 13.152c0.065-0.005 0.141-0.008 0.217-0.008 1.602 0 2.901 1.299 2.901 2.902s-1.299 2.901-2.901 2.901c-0.076 0-0.152-0.003-0.227-0.009-1.588 0.001-2.883-1.295-2.883-2.893s1.295-2.893 2.893-2.893zM19.878 9.78h1.9c0.001 0 0.002 0 0.003 0 0.342 0 0.619 0.277 0.619 0.619 0 0.001 0 0.001 0 0.002v1.895c0 0.001 0 0.001 0 0.002 0 0.342-0.277 0.619-0.619 0.619-0.001 0-0.002 0-0.003 0h-1.9c-0.001 0-0.001 0-0.002 0-0.343 0-0.62-0.278-0.62-0.62 0-0 0-0.001 0-0.001v-1.895c0-0 0-0.001 0-0.001 0-0.343 0.278-0.62 0.62-0.62 0.001 0 0.001 0 0.002 0z"></path>
</svg>
<svg id="icon-tw" width="32" height="32" viewBox="0 0 32 32" x="96" y="201">
<path fill="#fff" d="M15.977 0.010c8.83 0.001 15.988 7.16 15.988 15.99s-7.159 15.99-15.99 15.99-15.99-7.159-15.99-15.99c0-0.001 0-0.001 0-0.002 0-8.83 7.158-15.988 15.988-15.988 0.001 0 0.003 0 0.004 0zM25.289 11.027c-0.621 0.281-1.341 0.485-2.096 0.577 0.731-0.463 1.308-1.179 1.587-2.029-0.671 0.383-1.46 0.698-2.301 0.872-0.728-0.713-1.69-1.163-2.756-1.163-2.052 0-3.715 1.663-3.715 3.715 0 0.298 0.035 0.588 0.101 0.865-3.099-0.183-5.82-1.655-7.64-3.889-0.331 0.517-0.518 1.161-0.518 1.85 0 1.284 0.65 2.416 1.638 3.086-0.608-0.015-1.184-0.186-1.687-0.47 0.019 0.030 0.019 0.040 0.019 0.061 0.004 1.789 1.269 3.281 2.954 3.634-0.269 0.086-0.605 0.134-0.953 0.137-0.25-0.003-0.491-0.029-0.725-0.076 0.512 1.491 1.873 2.551 3.486 2.582-1.247 0.991-2.848 1.59-4.589 1.59-0.006 0-0.012 0-0.018-0-0.313-0.002-0.621-0.020-0.923-0.055 1.65 1.052 3.621 1.675 5.738 1.675 5.828 0 10.552-4.724 10.552-10.552 0-0.006 0-0.011 0-0.017 0-0.162 0-0.315-0.011-0.478 0.732-0.528 1.349-1.163 1.841-1.89z"></path>
</svg>
<svg id="icon-fb" width="32" height="32" viewBox="0 0 32 32" x="144" y="201">
<path fill="#fff" d="M15.971 0.010c8.827 0.001 15.983 7.157 15.983 15.985s-7.157 15.985-15.985 15.985-15.985-7.157-15.985-15.985c0-0.001 0-0.002 0-0.003 0-8.826 7.155-15.982 15.982-15.982 0.002 0 0.004 0 0.005 0zM16.759 25.47v-9.465h2.795l0.29-3.148h-3.085v-1.895c0-0.907 0.087-1.284 1.393-1.284h1.797v-3.484h-2.844c-3.356 0-4.159 1.569-4.159 4.422v2.241h-1.924v3.148h1.93v9.465h3.808z"></path>
</svg>
<svg id="icon-radio" width="12" height="12" viewBox="0 0 12 12" x="0" y="249">
<path fill="#fff" d="M10.989 6c0 2.758-2.236 4.994-4.994 4.994s-4.994-2.236-4.994-4.994c0-2.758 2.236-4.994 4.994-4.994s4.994 2.236 4.994 4.994z"></path>
</svg>
<svg id="icon-checkbox" width="16" height="12" viewBox="0 0 16 12" x="28" y="249">
<path fill="#fff" d="M14.548 2.87l-8.124 8.119-1.863-1.858-3.241-3.241 1.864-1.869 3.241 3.241 6.261-6.261z"></path>
</svg>
<svg id="icon-caret-down" width="7" height="12" viewBox="0 0 7 12" x="56" y="249">
<path fill="#fff" d="M6.855 4.5q0 0.174-0.127 0.301l-2.999 2.999q-0.127 0.127-0.301 0.127t-0.301-0.127l-2.999-2.999q-0.127-0.127-0.127-0.301t0.127-0.301 0.301-0.127h5.999q0.174 0 0.301 0.127t0.127 0.301z"></path>
</svg>
<svg id="icon-caret-down2" width="7" height="12" viewBox="0 0 7 12" x="84" y="249">
<path d="M6.855 4.5q0 0.174-0.127 0.301l-2.999 2.999q-0.127 0.127-0.301 0.127t-0.301-0.127l-2.999-2.999q-0.127-0.127-0.127-0.301t0.127-0.301 0.301-0.127h5.999q0.174 0 0.301 0.127t0.127 0.301z"></path>
</svg>
<svg id="icon-chevron-left" width="9" height="14" viewBox="0 0 9 14" x="0" y="277">
<path fill="#fff" d="M8.6 1.6l-1.4-1.5-5.4 5.5-1.4 1.4 6.8 6.9 1.4-1.5-5.4-5.4z"></path>
</svg>
<svg id="icon-chevron-right" width="9" height="14" viewBox="0 0 9 14" x="30" y="277">
<path fill="#fff" d="M8.6 7l-6.8-6.9-1.4 1.5 5.4 5.4-5.4 5.4 1.4 1.5 5.4-5.5z"></path>
</svg>
<svg id="icon-footer-logo" width="109" height="37" viewBox="0 0 109 37" x="0" y="307">
<path fill="#fff" d="M44.787 26.976c0.201-0.008 0.39-0.044 0.569-0.105l-0.014 1.345c-0.339 0.134-0.732 0.212-1.143 0.212-0.013 0-0.026-0-0.039-0-0.042 0.004-0.093 0.006-0.145 0.006-0.675 0-1.257-0.399-1.523-0.974-0.828 0.662-1.891 1.070-3.049 1.070-0.039 0-0.078-0-0.117-0.001-0.085 0.011-0.19 0.018-0.297 0.018-1.433 0-2.597-1.15-2.622-2.577-0-2.15 1.987-2.806 3.731-2.806 0.776 0.009 1.527 0.096 2.251 0.255l-0.073-0.306c0-1.049-0.766-1.785-2.198-1.785-1.092 0.001-2.129 0.239-3.062 0.664l0.046-1.723c0.954-0.341 2.055-0.543 3.202-0.555 2.375-0 3.878 1.129 3.878 3.661v2.995c-0.003 0.022-0.005 0.047-0.005 0.072 0 0.297 0.241 0.538 0.538 0.538 0.026 0 0.051-0.002 0.075-0.005zM38.323 25.847c0.055 0.705 0.641 1.256 1.355 1.256 0.073 0 0.145-0.006 0.215-0.017-0.001 0.001 0.007 0.001 0.015 0.001 0.94 0 1.792-0.382 2.407-0.998l0-1.412c-0.538-0.119-1.163-0.195-1.802-0.212-1.072-0-2.191 0.333-2.191 1.381zM50.727 19.715c0.039-0.001 0.085-0.002 0.132-0.002 0.901 0 1.746 0.24 2.474 0.66l-0.024 1.692c-0.641-0.436-1.432-0.696-2.283-0.696-0.013 0-0.025 0-0.038 0-0.061-0.005-0.135-0.008-0.21-0.008-1.524 0-2.76 1.236-2.76 2.76s1.236 2.76 2.76 2.76c0.064 0 0.127-0.002 0.19-0.006 0.889-0.005 1.729-0.243 2.457-0.658l-0.025 1.737c-0.775 0.364-1.683 0.576-2.64 0.576-0.047 0-0.093-0.001-0.14-0.002-0.080 0.007-0.182 0.010-0.285 0.010-2.335 0-4.227-1.893-4.227-4.227 0-0.042 0.001-0.084 0.002-0.125-0.002-0.039-0.003-0.092-0.003-0.144 0-2.395 1.941-4.336 4.336-4.336 0.1 0 0.2 0.003 0.298 0.010zM62.949 26.976c0.201-0.008 0.39-0.044 0.569-0.105l-0.014 1.345c-0.339 0.134-0.732 0.212-1.143 0.212-0.013 0-0.026-0-0.039-0-0.042 0.004-0.093 0.006-0.145 0.006-0.675 0-1.257-0.399-1.523-0.974-0.828 0.662-1.891 1.070-3.049 1.070-0.039 0-0.078-0-0.117-0.001-0.085 0.011-0.19 0.018-0.297 0.018-1.433 0-2.597-1.15-2.622-2.577-0-2.15 1.987-2.806 3.721-2.806 0.78 0.009 1.534 0.096 2.262 0.255l-0.073-0.306c0-1.049-0.776-1.785-2.198-1.785-1.092 0.001-2.129 0.239-3.062 0.664l0.046-1.723c0.954-0.342 2.055-0.544 3.202-0.555 2.375-0 3.867 1.129 3.867 3.661v2.995c-0.003 0.020-0.004 0.042-0.004 0.066 0 0.301 0.244 0.545 0.545 0.545 0.026 0 0.052-0.002 0.077-0.005zM56.485 25.847c0.055 0.705 0.641 1.256 1.355 1.256 0.073 0 0.145-0.006 0.215-0.017-0.003 0.001 0.003 0.001 0.008 0.001 0.943 0 1.796-0.381 2.415-0.998l-0-1.412c-0.538-0.118-1.162-0.194-1.801-0.211-1.083-0-2.192 0.332-2.192 1.381zM73.296 16.105v12.202h-1.664v-1.331c-0.721 0.948-1.85 1.554-3.12 1.554-0.031 0-0.061-0-0.092-0.001-2.316-0.145-4.144-2.062-4.144-4.407s1.827-4.262 4.136-4.406c0.045-0.002 0.083-0.002 0.122-0.002 1.154 0 2.19 0.502 2.903 1.299l0.003-4.907h1.856zM68.748 21.349c-1.454 0.099-2.596 1.303-2.596 2.773s1.142 2.674 2.587 2.773c1.2-0.002 2.224-0.719 2.674-1.746l0.007-2.056c-0.466-1.034-1.486-1.742-2.672-1.745zM79.347 19.715c3.328 0 4.478 2.682 3.943 5.103h-6.293c0.212 1.503 1.674 2.128 3.207 2.128 0.008 0 0.018 0 0.027 0 0.954 0 1.857-0.22 2.661-0.611l-0.036 1.619c-0.836 0.365-1.811 0.577-2.835 0.577-0.060 0-0.12-0.001-0.18-0.002-2.553 0-4.731-1.462-4.731-4.407-0.004-0.065-0.006-0.142-0.006-0.219 0-2.313 1.875-4.188 4.188-4.188 0.019 0 0.037 0 0.056 0zM79.438 21.258c-0.052-0.004-0.114-0.007-0.175-0.007-1.224 0-2.223 0.961-2.285 2.169l4.639 0.006c0.006-0.060 0.010-0.129 0.010-0.198 0-1.094-0.887-1.981-1.981-1.981-0.073 0-0.145 0.004-0.216 0.012zM85.186 28.307v-8.37h1.654v1.049c0.692-0.767 1.684-1.253 2.79-1.271 0.062-0.004 0.131-0.007 0.2-0.007 1.016 0 1.907 0.534 2.408 1.336 0.738-0.784 1.772-1.292 2.925-1.329 0.043-0.002 0.086-0.003 0.129-0.003 1.694 0 3.068 1.373 3.068 3.068 0 0.103-0.005 0.205-0.015 0.306l0.001 5.221h-1.866v-5.183c0.006-0.050 0.009-0.108 0.009-0.166 0-0.878-0.712-1.59-1.59-1.59-0.025 0-0.051 0.001-0.076 0.002-0.849 0.054-1.592 0.483-2.069 1.122 0.017 0.176 0.031 0.375 0.035 0.577l0 5.239h-1.866v-5.183c0.006-0.050 0.009-0.108 0.009-0.166 0-0.878-0.712-1.59-1.59-1.59-0.025 0-0.051 0.001-0.076 0.002-0.922 0.072-1.72 0.563-2.208 1.28l-0.007 5.658h-1.866zM106.575 19.937h1.946l-3.923 9.5c-0.898 2.178-2.088 2.914-3.358 2.914-0.394-0.008-0.772-0.059-1.134-0.149l0.035-1.586c0.254 0.083 0.545 0.131 0.848 0.131 0.003 0 0.006 0 0.009 0 0.907 0 1.583-0.645 2.067-1.956l0.182-0.413-3.973-8.441h1.987l2.824 6.313zM38.868 1.452v4.76c0.688-0.702 1.643-1.14 2.701-1.15 0.060-0.004 0.128-0.006 0.197-0.006 1.8 0 3.258 1.459 3.258 3.258 0 0.058-0.002 0.117-0.005 0.174l0 5.165h-1.866v-4.931c0.007-0.059 0.011-0.128 0.011-0.197 0-1.003-0.813-1.815-1.815-1.815-0.050 0-0.099 0.002-0.148 0.006-0.984 0.060-1.835 0.6-2.326 1.389l-0.007 5.549h-1.866v-12.202h1.866zM50.132 2.309v2.985h3.035v1.634h-3.035v3.832c0 1.099 0.504 1.462 1.583 1.462 0.61-0.001 1.192-0.119 1.725-0.334l-0.031 1.615c-0.662 0.23-1.425 0.363-2.218 0.363-0.011 0-0.021-0-0.032-0-0.095 0.013-0.207 0.020-0.321 0.020-1.414 0-2.56-1.146-2.56-2.56 0-0.075 0.003-0.149 0.010-0.223l-0.001-4.176h-1.503v-1.634h1.503v-2.531zM55.547 13.654v-8.36h1.654v1.039c0.692-0.767 1.684-1.253 2.79-1.271 0.059-0.004 0.124-0.006 0.19-0.006 1.019 0 1.913 0.533 2.419 1.336 0.743-0.783 1.78-1.29 2.935-1.329 0.039-0.001 0.076-0.002 0.114-0.002 1.698 0 3.074 1.376 3.074 3.074 0 0.104-0.005 0.207-0.015 0.309l0.001 5.211h-1.866v-5.173c0.006-0.050 0.009-0.109 0.009-0.168 0-0.883-0.716-1.598-1.598-1.598-0.023 0-0.045 0-0.067 0.001-0.851 0.058-1.594 0.49-2.069 1.132 0.017 0.176 0.031 0.375 0.035 0.577l0 5.229h-1.866v-5.173c0.006-0.050 0.009-0.109 0.009-0.168 0-0.883-0.716-1.598-1.598-1.598-0.023 0-0.045 0-0.067 0.001-0.921 0.077-1.717 0.566-2.209 1.281l-0.007 5.657h-1.866zM71.441 13.654h1.856v-12.202h-1.856v12.202zM14.759 0.020l-0.153-0.020-14.606 1.533v26.774l14.606 8.683 14.611-8.683v-26.774zM27.301 27.218l-12.695 7.553-12.695-7.553v-10.972l12.641 7.523 0.021 1.361-8.673-5.163-0.013 1.331 8.707 5.224 0.021 1.402-8.704-5.173-0.012 1.321 8.706 5.234 8.793-5.264v-1.321h-0.010v-4.326l3.913-2.34v11.164zM27.291 14.633l-5.073 2.995-7.65-4.548-0.013 1.321 6.534 3.893-0.061 0.030-0.131 0.081-0.938 0.545-5.391-3.207-0.013 1.321 4.255 2.541-1.029 0.686-3.213-1.896-0.013 1.321 2.107 1.24-2.146 1.291-12.578-7.473 12.597-7.573zM27.301 13.301l-12.764-7.523-12.624 7.513v-10.034l12.695-1.331 12.695 1.331v10.044z"></path>
</svg>
</svg>
