<svg style="position: absolute; width: 0; height: 0;" width="0" height="0" version="1.1" xmlns="http://www.w3.org/2000/svg" xmlns:xlink="http://www.w3.org/1999/xlink">
<defs>
<symbol id="icon-search" viewBox="0 0 32 32">
<title>search</title>
<path class="path1" d="M22.888 20.128h-1.448l-0.506-0.5c1.782-2.070 2.867-4.784 2.867-7.751 0-6.579-5.333-11.912-11.912-11.912s-11.912 5.333-11.912 11.912c0 6.579 5.333 11.912 11.912 11.912 2.967 0 5.681-1.085 7.766-2.88l0.489 0.516v1.448l9.152 9.128 2.729-2.727zM11.898 20.128c-4.537-0.010-8.211-3.69-8.211-8.228 0-4.544 3.684-8.228 8.228-8.228s8.228 3.684 8.228 8.228c-0.003 4.545-3.688 8.228-8.234 8.228-0.004 0-0.008 0-0.012 0z"></path>
</symbol>
<symbol id="icon-login" viewBox="0 0 34 32">
<title>login</title>
<path class="path1" d="M5.053 6.683v-1.617c0-2.791 2.262-5.053 5.053-5.053h18.626c2.791 0 5.053 2.262 5.053 5.053v21.858c0 2.791-2.262 5.053-5.053 5.053h-18.626c-2.79 0-5.053-2.262-5.053-5.053v-1.661h3.368v3.368h21.895v-25.263h-21.895v3.315h-3.368zM0 20.234h10.154v4.62l11.835-8.926-11.835-8.926v4.62h-10.154v8.613z"></path>
</symbol>
<symbol id="icon-icecream" viewBox="0 0 32 32">
<title>icecream</title>
<path class="path1" d="M16 0.522c-8.555 0-15.478 6.922-15.478 15.478s6.922 15.478 15.478 15.478c8.555 0 15.478-6.922 15.478-15.478s-6.922-15.478-15.478-15.478zM16 30.171c-7.837 0-14.171-6.335-14.171-14.171s6.335-14.171 14.171-14.171c7.837 0 14.171 6.335 14.171 14.171s-6.335 14.171-14.171 14.171zM15.935 5.159c-1.502 0-2.873 0.588-3.984 1.633-1.045 1.045-1.633 2.482-1.633 3.984v9.6c0 0.261 0.261 0.522 0.522 0.522h10.122c0.261 0 0.522-0.261 0.522-0.522v-9.6c0-1.502-0.588-2.873-1.633-3.984-1.045-1.045-2.416-1.633-3.918-1.633zM20.441 19.853h-9.078v-7.118c0 0 0.065 0.065 0.065 0.131 0.261 0.327 0.653 0.718 1.437 0.718 0.718 0 1.11-0.457 1.437-0.718 0.261-0.261 0.392-0.392 0.588-0.392 0 0 0.065 0.065 0.196 0.261s0.196 0.522 0.327 0.784c0.131 0.392 0.261 0.784 0.457 1.045 0.261 0.457 0.653 0.718 1.045 0.718s0.784-0.261 1.045-0.718c0.196-0.327 0.327-0.718 0.457-1.045 0.131-0.261 0.196-0.588 0.327-0.784s0.196-0.261 0.196-0.261c0.261 0 0.392 0.131 0.588 0.392 0.196 0.196 0.457 0.522 0.849 0.653v6.335zM14.563 25.469c0 0.718 0.588 1.306 1.306 1.306s1.306-0.588 1.306-1.306v-4.049h-2.678v4.049z"></path>
</symbol>
<symbol id="icon-leaf" viewBox="0 0 32 32">
<title>leaf</title>
<path class="path1" d="M15.955 26.887c0 0 15.021-6.875 0-22.119-15.021 15.244-48.248-990.71 0 22.119zM21.019 15.223c0.16 0.672 0.244 1.374 0.244 2.095 0 0.099-0.002 0.198-0.004 0.283l-4.656 2.978 0.014-2.485 4.414-2.81zM10.637 17.442c-0-0.022-0-0.044-0-0.067 0-0.766 0.094-1.51 0.257-2.159l4.358 2.803v2.445l-4.615-3.026zM11.327 13.764c0.274-0.75 0.607-1.472 0.956-2.086l2.969 2.283v2.452zM13.047 10.431c0.676-1.024 1.422-1.998 2.205-2.886v4.755zM16.603 12.488l-0.025-5.040c0.88 0.996 1.687 2.059 2.476 3.284l-2.451 1.756zM19.701 11.817c0.351 0.642 0.655 1.312 0.941 2.109l-4.040 2.6 0.014-2.485zM20.947 19.45c-0.761 2.286-2.299 4.218-4.344 5.506l0.014-2.81 4.352-2.769zM15.255 24.915c-1.418-0.952-3.59-2.837-4.336-5.633l4.334 2.789v2.843zM15.998-0.007c-0.001 0-0.001 0-0.002 0-8.84 0-16.007 7.166-16.007 16.007s7.166 16.007 16.007 16.007c8.84 0 16.007-7.166 16.007-16.007s-7.166-16.007-16.007-16.007zM15.996 30.656c-8.094 0-14.656-6.562-14.656-14.656s6.562-14.656 14.656-14.656c8.094 0 14.656 6.562 14.656 14.656-0.008 8.090-6.564 14.646-14.653 14.656z"></path>
</symbol>
<symbol id="icon-cow" viewBox="0 0 31 32">
<title>cow</title>
<path class="path1" d="M15.804 0.522c-8.555 0-15.478 6.922-15.478 15.478s6.922 15.478 15.478 15.478c8.555 0 15.478-6.922 15.478-15.478s-6.922-15.478-15.478-15.478zM15.804 30.171c-7.837 0-14.171-6.335-14.171-14.171s6.335-14.171 14.171-14.171c7.837 0 14.171 6.335 14.171 14.171s-6.4 14.171-14.171 14.171zM25.927 14.237c-0.522-1.241-2.351-1.763-3.069-1.959l-0.196-0.065c0.914-1.894 0.522-4.963 0.131-6.008l-2.024 0.196c-0.065 0.653-0.522 1.894-2.22 3.265l-1.11 0.784c-0.457-0.065-0.98-0.131-1.502-0.131-0.588 0-1.045 0.065-1.567 0.131l-1.045-0.718c-1.763-1.371-2.22-2.612-2.22-3.265l-1.959-0.196c-0.327 1.045-0.784 4.114 0.131 6.008h-0.065c-0.784 0.196-2.547 0.718-3.135 1.959-0.196 0.457-0.131 1.045 0.131 1.437 0.196 0.261 0.588 0.653 1.371 0.653 0.522 0 1.306-0.196 2.025-0.522-0.131 1.698 0.196 3.657 1.175 5.682-0.196 0.522-0.327 1.11-0.196 1.698 0.327 2.22 2.743 3.396 5.551 3.396s5.224-1.241 5.551-3.396c0.131-0.718 0-1.371-0.327-2.024 0.849-1.959 1.175-3.788 1.045-5.42 0.718 0.327 1.567 0.522 2.155 0.522 0.784 0 1.241-0.457 1.371-0.653 0.196-0.327 0.261-0.914 0-1.371zM7.249 14.759c0.327-0.784 2.22-1.175 2.22-1.175 0.065 0.392 0.065 0.457 0.327 0.784-0.457 0.261-2.873 1.11-2.547 0.392zM10.645 12.016c-0.849-0.914-0.718-3.135-0.457-4.571 0.065 1.633 2.416 3.265 2.416 3.265-0.849 0.392-1.567 1.11-1.959 1.306zM20.114 20.702l-0.261 0.588 0.261 0.522c0.196 0.392 0.261 0.849 0.196 1.241-0.196 1.567-2.351 2.286-4.245 2.286s-4.049-0.718-4.245-2.286c-0.065-0.327 0-0.718 0.131-1.045l0.196-0.522-0.261-0.522c-1.306-2.873-1.437-5.616-0.327-7.445 0.849-1.306 2.351-2.024 4.31-2.024s3.461 0.718 4.31 1.959c1.241 1.829 1.175 4.506-0.065 7.249zM21.29 11.951c-0.392-0.196-1.11-0.914-1.959-1.306 0 0 2.351-1.633 2.416-3.265 0.261 1.437 0.392 3.722-0.457 4.571zM22.269 14.302c0.196-0.327 0.261-0.392 0.327-0.784 0 0 1.894 0.457 2.22 1.175 0.261 0.784-2.155-0.065-2.547-0.392z"></path>
</symbol>
<symbol id="icon-term" viewBox="0 0 31 32">
<title>term</title>
<path class="path1" d="M15.804 0.522c-8.555 0-15.478 6.922-15.478 15.478s6.922 15.478 15.478 15.478c8.555 0 15.478-6.922 15.478-15.478s-6.922-15.478-15.478-15.478zM15.804 30.171c-7.837 0-14.171-6.335-14.171-14.171s6.335-14.171 14.171-14.171c7.837 0 14.171 6.335 14.171 14.171s-6.4 14.171-14.171 14.171zM18.939 8.555c0-1.763-1.437-3.2-3.265-3.2s-3.265 1.437-3.265 3.2v9.731c-0.653 0.849-1.175 1.959-1.175 3.004 0 2.416 2.024 4.441 4.441 4.441s4.441-1.959 4.441-4.441c0-1.045-0.522-2.090-1.175-2.939v-9.796zM15.673 24.359c-1.698 0-3.135-1.371-3.135-3.135 0-0.98 0.522-1.894 1.175-2.482v-10.188c0-1.045 0.914-1.894 1.959-1.894s1.959 0.849 1.959 1.894v10.253c0.653 0.588 1.175 1.437 1.175 2.416 0 1.763-1.371 3.135-3.135 3.135zM23.51 13.061h-2.612c-0.392 0-0.653 0.261-0.653 0.653s0.261 0.653 0.653 0.653h2.612c0.392 0 0.653-0.261 0.653-0.653s-0.261-0.653-0.653-0.653zM16.327 19.461v-10.971c0-0.327-0.261-0.588-0.588-0.588s-0.588 0.261-0.588 0.588v10.971c-0.718 0.261-1.241 0.914-1.241 1.698 0 0.98 0.784 1.829 1.829 1.829 0.98 0 1.829-0.784 1.829-1.829-0.131-0.784-0.588-1.437-1.241-1.698zM23.51 15.673h-2.612c-0.392 0-0.653 0.261-0.653 0.653s0.261 0.653 0.653 0.653h2.612c0.392 0 0.653-0.261 0.653-0.653s-0.261-0.653-0.653-0.653zM23.51 7.837h-2.612c-0.392 0-0.653 0.261-0.653 0.653s0.261 0.653 0.653 0.653h2.612c0.392 0 0.653-0.261 0.653-0.653s-0.261-0.653-0.653-0.653zM23.51 10.449h-2.612c-0.392 0-0.653 0.261-0.653 0.653s0.261 0.653 0.653 0.653h2.612c0.392 0 0.653-0.261 0.653-0.653s-0.261-0.653-0.653-0.653z"></path>
</symbol>
<symbol id="icon-vk" viewBox="0 0 32 32">
<title>vk</title>
<path class="path1" d="M15.971 0.010c8.827 0.001 15.983 7.157 15.983 15.985s-7.157 15.985-15.985 15.985-15.985-7.157-15.985-15.985c0-0.001 0-0.002 0-0.003 0-8.826 7.155-15.982 15.982-15.982 0.002 0 0.004 0 0.005 0zM22.051 18.603c0.003-0.050 0.004-0.109 0.004-0.168 0-0.795-0.294-1.522-0.779-2.077-0.532-0.558-1.236-0.954-2.027-1.103l-0.023-0.075c0.586-0.238 1.064-0.64 1.39-1.15 0.327-0.508 0.517-1.115 0.517-1.765 0-0.017-0-0.035-0-0.052 0-0.015 0.001-0.035 0.001-0.056 0-0.545-0.137-1.059-0.378-1.507-0.252-0.443-0.631-0.809-1.088-1.046-0.441-0.239-0.937-0.41-1.462-0.493-0.639-0.076-1.348-0.117-2.068-0.117-0.095 0-0.19 0.001-0.284 0.002l-4.876-0v13.845h5.54c0.068 0.002 0.148 0.003 0.229 0.003 0.762 0 1.502-0.094 2.209-0.271 0.597-0.174 1.17-0.475 1.665-0.87 0.429-0.338 0.783-0.77 1.032-1.265 0.257-0.525 0.401-1.117 0.401-1.743 0-0.032-0-0.065-0.001-0.097l0 0.005zM17.596 12.908c-0.004-0.25-0.068-0.484-0.176-0.691-0.107-0.223-0.295-0.402-0.526-0.498-0.247-0.108-0.526-0.171-0.82-0.176-0.315-0-0.782-0.010-1.401-0.010h-0.241v2.934h0.438c0.594 0 1.013-0.010 1.251-0.020 0.273-0.020 0.524-0.089 0.753-0.199 0.238-0.104 0.438-0.293 0.558-0.528 0.104-0.234 0.163-0.499 0.163-0.778 0-0.012-0-0.024-0-0.035l0 0.002zM18.468 18.542c0.002-0.030 0.003-0.064 0.003-0.099 0-0.337-0.098-0.651-0.267-0.916-0.191-0.249-0.458-0.441-0.766-0.54-0.261-0.087-0.549-0.136-0.848-0.136-0.011 0-0.022 0-0.034 0-0.367-0.010-0.863-0.010-1.482-0.010h-0.642v3.464h0.187c0.905 0 1.528-0.010 1.877-0.020 0.387-0.016 0.749-0.104 1.079-0.252 0.277-0.114 0.516-0.323 0.671-0.587 0.141-0.259 0.222-0.559 0.222-0.878 0-0.009-0-0.018-0-0.027z"></path>
</symbol>
<symbol id="icon-inst" viewBox="0 0 32 32">
<title>inst</title>
<path class="path1" d="M15.971 0.010c8.827 0.001 15.983 7.157 15.983 15.985s-7.157 15.985-15.985 15.985-15.985-7.157-15.985-15.985c0-0.001 0-0.001 0-0.002 0-8.827 7.156-15.983 15.983-15.983 0.001 0 0.003 0 0.004 0zM22.36 24.064c0 0 0 0 0 0 0.982 0 1.778-0.796 1.778-1.778 0-0.002 0-0.004 0-0.005v-12.541c-0.002-0.979-0.796-1.773-1.776-1.773-0.001 0-0.001 0-0.002 0h-12.558c-0.001 0-0.001 0-0.002 0-0.98 0-1.774 0.793-1.776 1.773v12.541c0 0.002 0 0.003 0 0.005 0 0.982 0.796 1.778 1.778 1.778 0 0 0 0 0 0h12.56zM20.959 14.793c0.101 0.376 0.159 0.809 0.159 1.254 0 2.769-2.245 5.013-5.013 5.013s-5.013-2.245-5.013-5.013c0-0.446 0.058-0.878 0.167-1.289l-1.414 0.035v6.907c0 0 0 0.001 0 0.001 0 0.343 0.278 0.62 0.62 0.62 0.001 0 0.001 0 0.002 0h11.273c0.001 0 0.002 0 0.003 0 0.343 0 0.62-0.278 0.62-0.62 0-0 0-0.001 0-0.001v-6.907h-1.406zM16.109 13.152c0.065-0.005 0.141-0.008 0.217-0.008 1.602 0 2.901 1.299 2.901 2.902s-1.299 2.901-2.901 2.901c-0.076 0-0.152-0.003-0.227-0.009-1.588 0.001-2.883-1.295-2.883-2.893s1.295-2.893 2.893-2.893zM19.878 9.78h1.9c0.001 0 0.002 0 0.003 0 0.342 0 0.619 0.277 0.619 0.619 0 0.001 0 0.001 0 0.002v1.895c0 0.001 0 0.001 0 0.002 0 0.342-0.277 0.619-0.619 0.619-0.001 0-0.002 0-0.003 0h-1.9c-0.001 0-0.001 0-0.002 0-0.343 0-0.62-0.278-0.62-0.62 0-0 0-0.001 0-0.001v-1.895c0-0 0-0.001 0-0.001 0-0.343 0.278-0.62 0.62-0.62 0.001 0 0.001 0 0.002 0z"></path>
</symbol>
<symbol id="icon-tw" viewBox="0 0 32 32">
<title>tw</title>
<path class="path1" d="M15.977 0.010c8.83 0.001 15.988 7.16 15.988 15.99s-7.159 15.99-15.99 15.99-15.99-7.159-15.99-15.99c0-0.001 0-0.001 0-0.002 0-8.83 7.158-15.988 15.988-15.988 0.001 0 0.003 0 0.004 0zM25.289 11.027c-0.621 0.281-1.341 0.485-2.096 0.577 0.731-0.463 1.308-1.179 1.587-2.029-0.671 0.383-1.46 0.698-2.301 0.872-0.728-0.713-1.69-1.163-2.756-1.163-2.052 0-3.715 1.663-3.715 3.715 0 0.298 0.035 0.588 0.101 0.865-3.099-0.183-5.82-1.655-7.64-3.889-0.331 0.517-0.518 1.161-0.518 1.85 0 1.284 0.65 2.416 1.638 3.086-0.608-0.015-1.184-0.186-1.687-0.47 0.019 0.030 0.019 0.040 0.019 0.061 0.004 1.789 1.269 3.281 2.954 3.634-0.269 0.086-0.605 0.134-0.953 0.137-0.25-0.003-0.491-0.029-0.725-0.076 0.512 1.491 1.873 2.551 3.486 2.582-1.247 0.991-2.848 1.59-4.589 1.59-0.006 0-0.012 0-0.018-0-0.313-0.002-0.621-0.020-0.923-0.055 1.65 1.052 3.621 1.675 5.738 1.675 5.828 0 10.552-4.724 10.552-10.552 0-0.006 0-0.011 0-0.017 0-0.162 0-0.315-0.011-0.478 0.732-0.528 1.349-1.163 1.841-1.89z"></path>
</symbol>
<symbol id="icon-fb" viewBox="0 0 32 32">
<title>fb</title>
<path class="path1" d="M15.971 0.010c8.827 0.001 15.983 7.157 15.983 15.985s-7.157 15.985-15.985 15.985-15.985-7.157-15.985-15.985c0-0.001 0-0.002 0-0.003 0-8.826 7.155-15.982 15.982-15.982 0.002 0 0.004 0 0.005 0zM16.759 25.47v-9.465h2.795l0.29-3.148h-3.085v-1.895c0-0.907 0.087-1.284 1.393-1.284h1.797v-3.484h-2.844c-3.356 0-4.159 1.569-4.159 4.422v2.241h-1.924v3.148h1.93v9.465h3.808z"></path>
</symbol>
<symbol id="icon-cart" viewBox="0 0 33 32">
<title>cart</title>
<path class="path1" d="M33.397 7.187c0.422-2.14-0.665-3.976-2.45-3.976l-22.664-0c0.819-0.075 1.46-0.764 1.46-1.603 0-0.889-0.721-1.61-1.61-1.61-0.007 0-0.013 0-0.019 0h-6.491c-0.896 0-1.623 0.727-1.623 1.623s0.727 1.623 1.623 1.623l3.457-0.006c-0.001 0.043-0.001 0.085-0.001 0.128 0 0.566 0.077 1.113 0.212 1.59l2.389 16.715c0.29 1.446 1.528 2.549 3.047 2.632l17.665-0c1.51-0.083 2.749-1.186 3.042-2.653l1.964-14.462zM10.921 21.010l-2.126-14.605h21.421l-0.049 0.325-1.915 14.261c-0.007 0.006-0.013 0.014-0.016 0.022l-17.315 0zM11.765 25.893c1.675 0.006 3.031 1.365 3.031 3.041 0 1.68-1.362 3.041-3.041 3.041s-3.041-1.362-3.041-3.041c0 0 0 0 0-0 0-1.68 1.362-3.041 3.041-3.041 0.003 0 0.007 0 0.010 0zM26.37 25.893c1.675 0.006 3.031 1.365 3.031 3.041 0 1.68-1.362 3.041-3.041 3.041s-3.041-1.362-3.041-3.041c0 0 0 0 0-0 0-1.68 1.362-3.041 3.041-3.041 0.003 0 0.007 0 0.010 0z"></path>
</symbol>
<symbol id="icon-radio" viewBox="0 0 32 32">
<title>radio</title>
<path class="path1" d="M31.973 16c0 8.83-7.158 15.988-15.988 15.988s-15.988-7.158-15.988-15.988c0-8.83 7.158-15.988 15.988-15.988s15.988 7.158 15.988 15.988z"></path>
</symbol>
<symbol id="icon-checkbox" viewBox="0 0 42 32">
<title>checkbox</title>
<path class="path1" d="M42.323 5.981l-26.002 25.985-5.964-5.947-10.374-10.374 5.967-5.981 10.374 10.374 20.038-20.038z"></path>
</symbol>
<symbol id="icon-chevron-left" viewBox="0 0 21 32">
<title>chevron-left</title>
<path class="path1" d="M19.657 3.657l-3.2-3.429-12.343 12.571-3.2 3.2 15.543 15.771 3.2-3.429-12.343-12.343z"></path>
</symbol>
<symbol id="icon-chevron-right" viewBox="0 0 21 32">
<title>chevron-right</title>
<path class="path1" d="M19.657 16l-15.543-15.771-3.2 3.429 12.343 12.343-12.343 12.343 3.2 3.429 12.343-12.571z"></path>
</symbol>
<symbol id="icon-footer-logo" viewBox="0 0 94 32">
<title>footer-logo</title>
<path class="path1" d="M38.735 23.331c0.174-0.007 0.338-0.038 0.492-0.091l-0.012 1.164c-0.293 0.116-0.633 0.183-0.989 0.183-0.011 0-0.022-0-0.033-0-0.036 0.004-0.080 0.006-0.125 0.006-0.584 0-1.087-0.345-1.317-0.843-0.716 0.573-1.635 0.925-2.637 0.925-0.034 0-0.068-0-0.101-0.001-0.074 0.010-0.165 0.015-0.257 0.015-1.239 0-2.246-0.994-2.267-2.229-0-1.86 1.718-2.427 3.227-2.427 0.671 0.008 1.321 0.083 1.947 0.221l-0.063-0.265c0-0.907-0.663-1.544-1.901-1.544-0.945 0.001-1.841 0.206-2.648 0.575l0.040-1.49c0.825-0.295 1.777-0.47 2.769-0.48 2.054-0 3.354 0.977 3.354 3.166v2.59c-0.003 0.019-0.004 0.041-0.004 0.063 0 0.257 0.208 0.465 0.465 0.465 0.022 0 0.044-0.002 0.065-0.005zM33.144 22.354c0.048 0.61 0.554 1.087 1.172 1.087 0.063 0 0.126-0.005 0.186-0.015-0.001 0.001 0.006 0.001 0.013 0.001 0.813 0 1.55-0.33 2.082-0.863l0-1.221c-0.465-0.103-1.006-0.169-1.559-0.183-0.927-0-1.895 0.288-1.895 1.195zM43.872 17.051c0.034-0.001 0.074-0.002 0.114-0.002 0.779 0 1.51 0.208 2.14 0.571l-0.021 1.463c-0.554-0.377-1.238-0.602-1.975-0.602-0.011 0-0.022 0-0.033 0-0.053-0.005-0.117-0.007-0.182-0.007-1.318 0-2.387 1.069-2.387 2.387s1.069 2.387 2.387 2.387c0.055 0 0.11-0.002 0.164-0.006 0.769-0.004 1.496-0.211 2.125-0.569l-0.021 1.503c-0.67 0.315-1.455 0.498-2.284 0.498-0.040 0-0.081-0-0.121-0.001-0.070 0.006-0.158 0.009-0.247 0.009-2.019 0-3.656-1.637-3.656-3.656 0-0.036 0.001-0.072 0.002-0.108-0.002-0.034-0.002-0.079-0.002-0.125 0-2.071 1.679-3.75 3.75-3.75 0.087 0 0.173 0.003 0.258 0.009zM54.443 23.331c0.174-0.007 0.338-0.038 0.492-0.091l-0.012 1.164c-0.293 0.116-0.633 0.183-0.989 0.183-0.011 0-0.022-0-0.033-0-0.036 0.004-0.080 0.006-0.125 0.006-0.584 0-1.087-0.345-1.317-0.843-0.716 0.573-1.635 0.925-2.637 0.925-0.034 0-0.068-0-0.101-0.001-0.074 0.010-0.165 0.015-0.257 0.015-1.239 0-2.246-0.994-2.267-2.229-0-1.86 1.718-2.427 3.218-2.427 0.674 0.008 1.327 0.083 1.956 0.221l-0.063-0.265c0-0.907-0.672-1.544-1.901-1.544-0.945 0.001-1.841 0.206-2.648 0.575l0.040-1.49c0.825-0.296 1.778-0.471 2.769-0.48 2.054-0 3.345 0.977 3.345 3.166v2.59c-0.002 0.017-0.003 0.037-0.003 0.057 0 0.26 0.211 0.471 0.471 0.471 0.023 0 0.045-0.002 0.067-0.005zM48.852 22.354c0.048 0.61 0.554 1.087 1.172 1.087 0.063 0 0.126-0.005 0.186-0.015-0.003 0.001 0.002 0.001 0.007 0.001 0.815 0 1.553-0.33 2.088-0.864l-0-1.221c-0.465-0.102-1.005-0.168-1.558-0.183-0.936-0-1.896 0.288-1.896 1.195zM63.391 13.929v10.553h-1.439v-1.151c-0.624 0.82-1.6 1.344-2.698 1.344-0.026 0-0.053-0-0.079-0.001-2.003-0.125-3.584-1.784-3.584-3.811s1.58-3.686 3.577-3.811c0.039-0.001 0.072-0.002 0.105-0.002 0.998 0 1.894 0.434 2.511 1.123l0.003-4.244h1.605zM59.458 18.464c-1.258 0.086-2.245 1.127-2.245 2.398s0.988 2.313 2.238 2.398c1.038-0.002 1.924-0.622 2.312-1.51l0.006-1.778c-0.403-0.894-1.285-1.506-2.311-1.509zM68.624 17.051c2.878 0 3.872 2.32 3.41 4.413h-5.442c0.183 1.3 1.448 1.84 2.773 1.84 0.007 0 0.015 0 0.024 0 0.825 0 1.606-0.19 2.301-0.528l-0.031 1.4c-0.723 0.315-1.566 0.499-2.451 0.499-0.052 0-0.104-0.001-0.155-0.002-2.208 0-4.092-1.265-4.092-3.811-0.003-0.057-0.005-0.123-0.005-0.19 0-2 1.622-3.622 3.622-3.622 0.016 0 0.032 0 0.048 0zM68.703 18.385c-0.045-0.004-0.098-0.006-0.152-0.006-1.058 0-1.923 0.831-1.976 1.876l4.012 0.005c0.005-0.051 0.009-0.111 0.009-0.172 0-0.946-0.767-1.713-1.713-1.713-0.063 0-0.126 0.003-0.187 0.010zM73.674 24.482v-7.239h1.43v0.907c0.599-0.664 1.457-1.083 2.413-1.099 0.054-0.004 0.113-0.006 0.173-0.006 0.878 0 1.649 0.462 2.082 1.156 0.638-0.678 1.533-1.118 2.53-1.149 0.037-0.002 0.075-0.002 0.112-0.002 1.465 0 2.653 1.188 2.653 2.653 0 0.089-0.004 0.177-0.013 0.264l0.001 4.516h-1.614v-4.483c0.005-0.043 0.007-0.093 0.007-0.144 0-0.76-0.616-1.375-1.375-1.375-0.022 0-0.044 0-0.066 0.002-0.735 0.047-1.377 0.418-1.789 0.97 0.014 0.152 0.027 0.325 0.030 0.499l0 4.531h-1.614v-4.483c0.005-0.043 0.007-0.093 0.007-0.144 0-0.76-0.616-1.375-1.375-1.375-0.022 0-0.044 0-0.066 0.002-0.797 0.062-1.487 0.487-1.91 1.107l-0.006 4.893h-1.614zM92.173 17.243h1.683l-3.393 8.216c-0.776 1.884-1.805 2.521-2.904 2.521-0.341-0.007-0.667-0.051-0.981-0.128l0.030-1.372c0.219 0.072 0.472 0.113 0.734 0.113 0.003 0 0.005 0 0.008 0 0.785 0 1.369-0.558 1.788-1.692l0.157-0.358-3.436-7.3h1.718l2.442 5.46zM33.615 1.256v4.117c0.595-0.607 1.421-0.986 2.336-0.994 0.052-0.003 0.111-0.005 0.17-0.005 1.556 0 2.818 1.262 2.818 2.818 0 0.051-0.001 0.101-0.004 0.151l0 4.467h-1.614v-4.265c0.006-0.051 0.009-0.11 0.009-0.17 0-0.867-0.703-1.57-1.57-1.57-0.043 0-0.086 0.002-0.128 0.005-0.851 0.052-1.587 0.519-2.012 1.201l-0.006 4.799h-1.614v-10.553h1.614zM43.357 1.997v2.582h2.625v1.413h-2.625v3.314c0 0.951 0.436 1.265 1.369 1.265 0.528-0.001 1.031-0.103 1.492-0.289l-0.027 1.396c-0.572 0.199-1.232 0.314-1.919 0.314-0.009 0-0.019-0-0.028-0-0.082 0.011-0.179 0.018-0.278 0.018-1.223 0-2.214-0.991-2.214-2.214 0-0.065 0.003-0.129 0.008-0.192l-0.001-3.611h-1.3v-1.413h1.3v-2.189zM48.041 11.809v-7.23h1.43v0.898c0.599-0.664 1.457-1.083 2.413-1.099 0.051-0.003 0.107-0.005 0.164-0.005 0.881 0 1.654 0.461 2.092 1.155 0.643-0.677 1.539-1.116 2.538-1.15 0.034-0.001 0.066-0.002 0.099-0.002 1.468 0 2.658 1.19 2.658 2.658 0 0.090-0.005 0.179-0.013 0.267l0.001 4.507h-1.614v-4.474c0.005-0.043 0.008-0.094 0.008-0.145 0-0.763-0.619-1.382-1.382-1.382-0.020 0-0.039 0-0.058 0.001-0.736 0.050-1.378 0.424-1.789 0.979 0.014 0.152 0.027 0.325 0.030 0.499l0 4.522h-1.614v-4.474c0.005-0.043 0.008-0.094 0.008-0.145 0-0.763-0.619-1.382-1.382-1.382-0.020 0-0.039 0-0.058 0.001-0.797 0.066-1.485 0.489-1.91 1.108l-0.006 4.893h-1.614zM61.786 11.809h1.605v-10.553h-1.605v10.553zM12.764 0.017l-0.133-0.017-12.633 1.326v23.156l12.633 7.509 12.637-7.509v-23.156zM23.611 23.54l-10.98 6.533-10.98-6.533v-9.489l10.933 6.506 0.018 1.177-7.501-4.466-0.011 1.151 7.53 4.518 0.018 1.212-7.528-4.474-0.010 1.143 7.529 4.527 7.604-4.553v-1.143h-0.009v-3.742l3.384-2.023v9.655zM23.603 12.655l-4.387 2.59-6.616-3.934-0.011 1.143 5.651 3.367-0.052 0.026-0.113 0.070-0.811 0.471-4.663-2.774-0.011 1.143 3.68 2.198-0.89 0.593-2.779-1.64-0.011 1.143 1.822 1.073-1.856 1.116-10.879-6.463 10.894-6.55zM23.611 11.504l-11.039-6.506-10.918 6.498v-8.678l10.98-1.151 10.98 1.151v8.687z"></path>
</symbol>
<symbol id="icon-cart-full" viewBox="0 0 32 32">
<title>cart-full</title>
<path fill="#e84d37" class="path1" d="M6.857 5.858h23.040l-2.088 15.619-19.246-0.192z"></path>
<path fill="#343434" class="path2" d="M31.36 7.511c0.396-2.010-0.625-3.733-2.301-3.733h-21.282c0.769-0.071 1.371-0.718 1.371-1.505 0-0.835-0.677-1.512-1.512-1.512-0.006 0-0.013 0-0.018 0h-6.095c-0.842 0-1.524 0.682-1.524 1.524s0.682 1.524 1.524 1.524l3.246-0.006c-0.001 0.040-0.001 0.080-0.001 0.121 0 0.531 0.073 1.045 0.199 1.493l2.243 15.695c0.272 1.358 1.435 2.393 2.861 2.472h16.587c1.418-0.078 2.581-1.114 2.857-2.491l1.844-13.58zM10.255 20.491l-1.996-13.714h20.114l-0.046 0.305-1.798 13.391c-0.007 0.006-0.012 0.013-0.015 0.021h-16.259zM11.048 25.074c1.575 0.004 2.85 1.282 2.85 2.857 0 1.578-1.279 2.857-2.857 2.857s-2.857-1.279-2.857-2.857c0 0 0 0 0 0 0-1.578 1.279-2.857 2.857-2.857 0.003 0 0.005 0 0.008 0zM24.762 25.074c1.575 0.004 2.85 1.282 2.85 2.857 0 1.578-1.279 2.857-2.857 2.857s-2.857-1.279-2.857-2.857c0 0 0 0 0 0 0-1.578 1.279-2.857 2.857-2.857 0.003 0 0.005 0 0.008 0z"></path>
</symbol>
<symbol id="icon-heart" viewBox="0 0 32 32">
<title>heart</title>
<path class="path1" d="M16.042 8.345c0 0-2-4.262-6.5-4.262-4.917 0-7.5 4.167-7.5 8.333 0 6.917 14 15.5 14 15.5s13.916-8.5 13.916-15.5c0-4.25-2.666-8.333-7.416-8.333s-6.5 4.262-6.5 4.262z"></path>
</symbol>
</defs>
</svg>
